<?xml version="1.0" standalone="no"?>
<!DOCTYPE svg PUBLIC "-//W3C//DTD SVG 20010904//EN"
 "http://www.w3.org/TR/2001/REC-SVG-20010904/DTD/svg10.dtd">
<svg version="1.0" xmlns="http://www.w3.org/2000/svg"
 width="888.000000pt" height="888.000000pt" viewBox="0 0 888.000000 888.000000"
 preserveAspectRatio="xMidYMid meet">
<metadata>
Created by potrace 1.14, written by Peter Selinger 2001-2017
</metadata>
<g transform="translate(0.000000,888.000000) scale(0.100000,-0.100000)"
fill="#000000" stroke="none">
<path d="M3228 8116 c-1 -2 -37 -6 -78 -9 -41 -3 -87 -10 -103 -16 -15 -6 -27
-9 -27 -6 0 11 -212 -83 -218 -97 -2 -5 -8 -8 -13 -8 -10 0 -49 -26 -98 -65
-49 -39 -200 -197 -206 -216 -4 -10 -11 -19 -16 -19 -5 0 -9 -6 -9 -14 0 -8
-3 -16 -8 -18 -11 -4 -72 -103 -72 -115 0 -6 -6 -16 -13 -22 -8 -6 -20 -29
-27 -51 -7 -22 -17 -40 -22 -40 -4 0 -7 -3 -6 -7 4 -15 -24 -83 -33 -83 -6 0
-8 -4 -5 -9 3 -5 -5 -40 -19 -77 -14 -38 -25 -70 -24 -72 1 -4 -23 -116 -28
-132 -3 -8 -7 -26 -9 -40 -18 -124 -22 -173 -25 -307 -2 -58 -7 -93 -13 -93
-8 0 -7 -3 0 -8 6 -4 11 -14 12 -22 4 -94 11 -188 15 -200 8 -21 20 -90 22
-121 1 -14 5 -31 9 -37 4 -6 9 -28 11 -48 3 -20 8 -41 12 -48 4 -6 8 -15 9
-21 1 -5 9 -29 17 -52 9 -22 13 -44 10 -47 -4 -3 -1 -6 5 -6 7 0 11 -3 10 -7
0 -5 2 -16 7 -26 4 -10 2 -24 -6 -35 -13 -16 -13 -16 5 -2 18 14 19 13 14 -8
-4 -12 -2 -20 3 -16 5 3 14 -7 19 -23 13 -35 14 -37 48 -98 40 -73 56 -99 62
-105 3 -3 17 -21 30 -40 37 -54 40 -56 125 -143 44 -45 79 -85 77 -90 -1 -4 1
-6 5 -5 13 3 53 -13 53 -21 0 -10 90 -66 119 -76 12 -3 21 -11 21 -16 0 -5 8
-9 18 -9 9 0 31 -8 47 -18 17 -10 40 -17 53 -16 14 1 22 -4 22 -14 0 -12 3
-13 11 -5 7 7 23 7 55 -3 24 -7 44 -10 44 -7 0 3 6 1 13 -6 10 -8 17 -7 25 1
9 9 12 9 12 0 0 -7 6 -11 13 -10 6 2 11 -3 9 -10 -1 -8 2 -11 8 -7 6 3 7 11 4
17 -5 7 -1 9 9 5 9 -3 19 -2 22 4 4 5 12 6 18 2 17 -11 29 -11 51 0 14 7 17 6
10 -5 -6 -10 -5 -11 7 -1 9 7 20 9 25 5 5 -4 8 -5 6 -3 -3 6 131 40 139 35 4
-2 12 3 19 11 7 8 19 15 26 15 16 0 112 51 172 91 24 16 45 29 48 29 13 0 234
233 234 247 0 13 38 51 45 45 5 -4 5 -1 1 6 -9 14 12 45 24 37 5 -3 6 3 3 13
-2 10 3 24 11 31 9 8 16 20 16 27 0 10 8 13 26 10 15 -3 23 -2 19 2 -3 4 -12
7 -18 7 -17 1 -9 37 11 53 9 6 13 12 10 12 -4 0 -1 12 7 27 8 15 12 30 9 35
-3 4 0 8 5 8 6 0 10 6 9 13 -2 6 2 11 8 10 7 -1 10 6 7 17 -3 12 0 20 6 20 7
0 9 5 6 10 -8 12 16 80 28 80 4 0 5 5 2 10 -4 6 -1 26 5 46 7 19 13 43 15 52
2 9 4 17 5 17 1 0 3 9 4 20 3 19 10 61 22 137 3 18 5 43 5 56 -1 13 2 21 7 19
4 -3 7 27 6 66 -1 40 3 79 7 88 5 9 6 19 2 23 -11 11 -10 120 1 135 8 11 8 13
-1 7 -10 -5 -13 3 -14 31 -1 21 -2 59 -3 85 0 27 -3 48 -6 48 -6 0 -11 39 -14
93 0 15 -5 27 -9 27 -5 0 -7 8 -6 18 1 9 0 19 -1 22 -1 3 -3 13 -5 23 -11 60
-62 210 -96 285 -10 23 -19 49 -19 57 0 8 -4 15 -9 15 -5 0 -15 15 -22 33 -13
31 -87 157 -99 167 -3 3 -20 25 -38 50 -47 66 -178 190 -252 239 -69 44 -197
109 -227 114 -10 1 -24 6 -30 10 -7 5 -13 6 -13 3 0 -3 -12 -1 -26 4 -14 6
-56 13 -92 16 -37 3 -72 7 -79 9 -6 2 -13 2 -15 1z"/>
<path d="M5615 8113 c-191 -17 -360 -82 -505 -198 -65 -51 -191 -188 -239
-260 -29 -44 -58 -83 -65 -87 -6 -4 -8 -8 -4 -8 5 0 -10 -34 -32 -76 -22 -42
-40 -83 -40 -90 0 -8 -5 -14 -12 -14 -6 0 -8 -3 -5 -7 4 -3 2 -12 -4 -20 -6
-7 -8 -13 -4 -13 4 0 3 -6 -2 -12 -8 -11 -17 -34 -28 -78 0 -3 -6 -21 -13 -40
-6 -19 -14 -46 -16 -60 -3 -14 -5 -25 -6 -25 -2 0 -4 -8 -15 -55 -6 -25 -13
-69 -20 -125 -2 -16 -4 -30 -5 -30 -2 0 -10 -99 -13 -171 -2 -39 -7 -76 -11
-82 -4 -7 -3 -12 1 -12 5 0 9 -9 10 -20 1 -11 -3 -20 -8 -20 -6 0 -7 -6 -2
-12 11 -18 11 -31 -1 -47 -8 -11 -8 -13 2 -7 9 5 12 -3 13 -31 1 -21 2 -59 3
-85 0 -27 3 -48 6 -48 3 0 7 -15 9 -32 4 -51 8 -72 14 -88 4 -8 8 -28 11 -45
2 -16 5 -30 6 -30 1 0 3 -11 6 -25 2 -14 7 -32 11 -40 3 -8 7 -22 8 -30 1 -8
5 -24 10 -35 4 -11 19 -49 33 -85 34 -89 91 -208 103 -216 6 -3 8 -13 5 -21
-3 -8 -2 -12 3 -9 4 3 14 -7 22 -22 15 -30 110 -155 121 -160 5 -2 8 -10 8
-18 0 -8 7 -14 16 -14 8 0 13 -4 10 -9 -3 -5 1 -12 10 -15 8 -3 12 -11 8 -17
-4 -7 -3 -10 2 -6 13 8 45 -18 42 -34 -2 -7 6 -13 17 -14 11 0 19 -6 17 -13
-1 -8 2 -11 6 -8 5 3 20 -4 33 -15 13 -11 39 -30 59 -41 19 -12 38 -26 41 -31
3 -5 10 -8 15 -8 5 1 9 -3 9 -8 0 -5 4 -13 9 -18 5 -5 6 -2 1 5 -5 10 -2 13
11 10 12 -2 18 -11 17 -23 -1 -11 0 -14 3 -7 7 15 34 16 34 1 0 -5 3 -8 8 -6
4 3 18 0 32 -6 35 -14 31 -13 125 -33 17 -4 33 -12 37 -18 5 -7 8 -7 8 0 0 8
58 12 68 4 1 -2 12 -3 25 -4 12 -1 21 -8 19 -15 -1 -7 2 -10 8 -6 6 3 8 10 6
14 -3 4 5 8 17 8 12 1 36 4 52 6 17 3 36 0 44 -7 12 -8 13 -8 7 2 -7 12 -5 13
32 16 9 1 23 5 30 9 7 5 12 3 12 -5 0 -8 5 -6 11 5 6 9 15 15 20 12 5 -4 6
-11 3 -17 -4 -7 -2 -8 5 -4 6 4 9 11 6 16 -4 6 28 23 65 34 21 7 136 70 138
77 2 5 8 7 13 3 5 -3 9 0 9 6 0 7 7 9 16 6 8 -3 13 -2 10 3 -3 5 12 21 34 36
22 15 40 32 40 37 0 6 7 8 15 4 8 -3 14 -2 14 2 -3 19 2 32 14 32 6 0 26 20
44 43 18 23 48 60 67 82 20 22 36 46 36 53 0 6 4 12 9 12 5 0 14 14 21 30 7
17 18 30 26 30 7 0 11 6 8 14 -3 7 1 20 8 27 15 15 29 44 34 69 2 8 8 16 13
18 6 2 11 10 11 18 0 9 4 13 9 9 5 -3 13 0 17 6 4 8 3 9 -4 5 -20 -12 -15 6
43 149 11 27 12 32 14 56 0 11 5 18 9 15 4 -2 8 3 8 12 1 21 10 64 24 117 10
38 22 106 23 133 0 6 5 12 11 12 7 0 7 3 1 8 -13 9 -18 32 -7 32 5 0 8 20 7
45 -1 25 0 45 4 45 13 0 1 363 -12 377 -4 3 -2 14 3 24 6 10 6 19 1 21 -5 2
-11 22 -14 46 -2 23 -7 46 -11 49 -3 3 0 13 7 21 8 10 8 13 0 9 -9 -6 -28 58
-35 121 -1 6 -4 12 -7 12 -4 0 -8 12 -9 27 -1 15 -7 32 -12 37 -6 6 -10 17
-10 26 0 8 -13 47 -29 85 -174 428 -497 709 -851 741 -30 3 -62 6 -70 7 -8 1
-28 1 -45 0z"/>
<path d="M4355 6680 c-3 -5 -1 -10 4 -10 6 0 11 5 11 10 0 6 -2 10 -4 10 -3 0
-8 -4 -11 -10z"/>
<path d="M4400 6320 c-9 -6 -10 -10 -3 -10 6 0 15 5 18 10 8 12 4 12 -15 0z"/>
<path d="M4547 6119 c7 -7 15 -10 18 -7 3 3 -2 9 -12 12 -14 6 -15 5 -6 -5z"/>
<path d="M1095 5962 c-198 -22 -402 -151 -522 -329 -42 -64 -103 -185 -103
-207 0 -9 -4 -16 -8 -16 -5 0 -9 -6 -9 -12 0 -7 -8 -40 -16 -73 -19 -70 -30
-150 -31 -217 -1 -27 -4 -48 -8 -48 -7 0 -2 -39 6 -48 3 -2 1 -13 -5 -23 -5
-11 -6 -19 -1 -19 12 0 10 -43 -3 -52 -6 -5 -5 -8 3 -8 7 0 12 -8 11 -17 -1
-10 0 -20 1 -23 1 -3 3 -21 5 -40 1 -19 6 -48 10 -65 4 -16 8 -39 10 -50 2
-11 4 -20 5 -20 1 0 3 -8 6 -17 6 -26 10 -41 16 -58 3 -8 16 -43 28 -78 12
-35 32 -87 45 -115 13 -28 21 -55 18 -60 -3 -6 -2 -7 4 -4 13 8 38 -37 29 -52
-4 -6 -1 -9 7 -5 9 3 16 -3 20 -16 3 -11 6 -22 6 -25 1 -2 15 -19 31 -36 16
-18 27 -36 25 -40 -3 -4 2 -10 11 -13 9 -4 14 -13 10 -22 -3 -8 -2 -12 4 -9 6
3 10 1 10 -5 0 -6 4 -8 10 -5 6 3 10 2 10 -3 0 -12 150 -162 162 -162 5 0 6
-5 2 -12 -4 -6 -3 -8 4 -4 5 3 24 -5 40 -19 16 -14 35 -25 41 -25 6 0 11 -4
11 -10 0 -5 7 -10 15 -10 8 0 24 -9 34 -19 11 -11 22 -17 25 -14 3 3 17 -2 30
-11 14 -9 32 -16 41 -16 8 0 15 -5 15 -10 0 -6 3 -9 8 -9 17 3 33 -2 29 -8 -3
-5 9 -7 26 -7 18 1 37 -1 42 -5 18 -10 39 -12 158 -16 80 -2 123 -7 135 -16
15 -13 16 -12 3 4 -7 9 -10 17 -5 18 5 0 16 2 24 4 8 2 29 7 45 10 17 3 42 12
58 20 19 9 25 10 20 2 -3 -7 3 -3 15 7 12 11 22 16 22 12 0 -8 82 44 92 59 4
5 8 6 8 2 0 -4 10 1 22 13 12 11 36 29 52 41 17 12 46 41 65 66 22 28 39 42
49 38 13 -5 13 -3 1 12 -12 15 -12 16 4 10 11 -4 16 -3 12 3 -4 6 10 37 29 69
20 32 36 64 36 70 0 6 5 11 10 11 6 0 10 12 10 26 0 18 4 24 13 21 10 -4 13 2
9 19 -2 14 0 24 7 24 7 0 10 4 7 9 -4 5 -2 21 4 35 5 15 12 37 14 49 3 12 8
33 11 47 11 45 15 74 20 164 3 49 8 93 11 97 2 4 0 11 -6 14 -8 5 -8 11 -1 19
6 7 8 16 4 19 -3 4 -7 26 -8 49 -3 53 -12 114 -30 192 -8 33 -12 63 -9 68 3 4
0 8 -5 8 -6 0 -11 10 -11 23 0 13 -4 27 -10 33 -5 5 -11 18 -13 29 -2 11 -11
37 -20 59 -9 21 -17 43 -17 48 0 6 -8 22 -18 36 -10 15 -29 50 -42 77 -14 28
-28 52 -32 53 -5 2 -8 8 -8 13 0 5 -23 39 -50 74 -28 36 -48 65 -46 65 10 0
-145 144 -199 186 -82 61 -223 130 -320 155 -74 19 -209 29 -280 21z"/>
<path d="M7565 5954 c-73 -13 -122 -29 -195 -62 -30 -14 -57 -26 -60 -26 -7
-1 -114 -69 -120 -76 -3 -3 -22 -19 -44 -35 -32 -25 -78 -69 -158 -156 -10
-10 -36 -46 -59 -79 -22 -33 -45 -62 -50 -66 -5 -3 -7 -10 -4 -15 4 -5 2 -9
-4 -9 -5 0 -13 -10 -17 -22 -4 -13 -9 -25 -13 -28 -11 -9 -51 -100 -51 -115 0
-8 -4 -15 -9 -15 -5 0 -12 -16 -15 -35 -4 -19 -11 -35 -16 -35 -6 0 -9 -3 -8
-7 3 -16 -15 -83 -23 -89 -5 -3 -7 -9 -5 -13 3 -4 -1 -32 -9 -62 -14 -55 -25
-125 -28 -169 -1 -14 -6 -28 -12 -32 -6 -5 -6 -8 2 -8 9 0 10 -7 3 -24 -5 -13
-7 -26 -5 -28 3 -3 8 -76 18 -245 1 -18 6 -33 10 -33 5 0 7 -10 6 -22 -2 -23
5 -49 22 -81 5 -10 7 -22 4 -27 -4 -6 -1 -10 5 -10 7 0 10 -5 8 -12 -2 -6 8
-36 24 -67 15 -30 28 -61 28 -68 0 -7 5 -13 10 -13 6 0 10 -6 10 -12 0 -7 21
-39 45 -72 24 -32 42 -63 38 -69 -3 -6 -2 -7 4 -4 6 4 21 -6 35 -21 13 -15 39
-38 56 -51 17 -13 29 -28 25 -34 -3 -5 -1 -7 5 -3 12 7 88 -41 85 -55 -2 -4 4
-6 11 -3 8 3 25 -2 38 -10 14 -9 28 -13 31 -9 4 3 7 2 7 -4 0 -6 27 -16 60
-24 33 -7 60 -16 60 -19 0 -3 52 -6 115 -7 80 -1 121 -5 133 -15 15 -11 16
-11 4 3 -10 14 -9 17 8 22 13 3 18 1 14 -6 -5 -8 -2 -7 7 1 17 16 32 16 24 0
-4 -7 1 -4 9 6 9 11 16 17 16 14 0 -9 141 41 159 55 12 10 13 9 7 -3 -6 -12
-5 -12 6 0 19 23 109 71 119 64 5 -3 6 -10 3 -16 -5 -7 -2 -8 5 -3 9 5 10 10
2 18 -13 13 -15 31 -3 23 5 -3 20 6 35 20 15 14 27 22 27 19 0 -3 34 29 76 72
42 43 81 77 86 75 5 -1 7 2 4 7 -3 5 14 34 39 64 25 31 45 60 45 65 0 5 7 15
15 22 8 7 12 16 9 21 -3 5 -1 9 5 9 5 0 13 10 17 22 3 12 13 28 20 36 8 7 12
18 9 23 -4 5 -2 9 3 9 5 0 13 10 17 23 4 12 8 25 10 30 6 18 7 22 6 30 0 4 4
7 9 7 6 0 10 9 10 21 0 13 4 18 12 13 7 -4 8 -3 4 4 -4 7 -4 18 1 25 8 13 10
18 12 43 0 8 5 12 11 9 5 -3 7 0 4 9 -3 8 0 32 7 53 7 21 14 45 15 53 4 26 13
74 18 99 3 13 7 48 8 77 2 30 7 54 12 54 5 0 3 7 -4 15 -10 12 -10 15 1 15 9
0 10 3 2 11 -6 6 -7 25 -3 50 4 21 4 39 1 39 -3 0 -7 21 -8 48 -3 63 -10 124
-17 142 -3 8 -7 24 -9 35 -2 11 -12 47 -22 80 -11 33 -19 62 -20 65 0 3 -11
24 -23 46 -11 23 -18 44 -15 48 4 3 1 6 -5 6 -7 0 -12 7 -12 15 0 8 -4 15 -10
15 -5 0 -10 5 -10 12 0 15 -74 114 -119 159 -91 89 -219 163 -338 193 -34 9
-66 16 -70 15 -4 -1 -10 0 -13 1 -16 8 -174 4 -225 -6z"/>
<path d="M6393 5505 c0 -8 4 -12 9 -9 5 3 6 10 3 15 -9 13 -12 11 -12 -6z"/>
<path d="M3890 5480 c0 -5 5 -10 11 -10 5 0 7 5 4 10 -3 6 -8 10 -11 10 -2 0
-4 -4 -4 -10z"/>
<path d="M2566 5462 c-3 -5 1 -9 9 -9 8 0 12 4 9 9 -3 4 -7 8 -9 8 -2 0 -6 -4
-9 -8z"/>
<path d="M2315 5451 c-3 -5 -2 -12 3 -15 5 -3 9 1 9 9 0 17 -3 19 -12 6z"/>
<path d="M2595 5420 c-3 -5 -1 -10 4 -10 6 0 11 5 11 10 0 6 -2 10 -4 10 -3 0
-8 -4 -11 -10z"/>
<path d="M5013 5409 c-2 -23 3 -25 10 -4 4 8 3 16 -1 19 -4 3 -9 -4 -9 -15z"/>
<path d="M2655 5360 c-3 -5 -1 -10 4 -10 6 0 11 5 11 10 0 6 -2 10 -4 10 -3 0
-8 -4 -11 -10z"/>
<path d="M3810 5359 c0 -5 5 -7 10 -4 6 3 10 8 10 11 0 2 -4 4 -10 4 -5 0 -10
-5 -10 -11z"/>
<path d="M5074 5342 c4 -3 14 -7 22 -8 9 -1 13 0 10 4 -4 3 -14 7 -22 8 -9 1
-13 0 -10 -4z"/>
<path d="M6175 5320 c-3 -5 -1 -10 4 -10 6 0 11 5 11 10 0 6 -2 10 -4 10 -3 0
-8 -4 -11 -10z"/>
<path d="M3730 5301 c0 -6 4 -13 10 -16 6 -3 7 1 4 9 -7 18 -14 21 -14 7z"/>
<path d="M5134 5302 c4 -3 14 -7 22 -8 9 -1 13 0 10 4 -4 3 -14 7 -22 8 -9 1
-13 0 -10 -4z"/>
<path d="M6095 5300 c-3 -5 -1 -10 4 -10 6 0 11 5 11 10 0 6 -2 10 -4 10 -3 0
-8 -4 -11 -10z"/>
<path d="M5027 5279 c7 -7 15 -10 18 -7 3 3 -2 9 -12 12 -14 6 -15 5 -6 -5z"/>
<path d="M6306 5278 c3 -5 10 -6 15 -3 13 9 11 12 -6 12 -8 0 -12 -4 -9 -9z"/>
<path d="M2775 5271 c-3 -5 -2 -12 3 -15 5 -3 9 1 9 9 0 17 -3 19 -12 6z"/>
<path d="M3615 5260 c3 -5 8 -10 11 -10 2 0 4 5 4 10 0 6 -5 10 -11 10 -5 0
-7 -4 -4 -10z"/>
<path d="M3694 5262 c4 -3 14 -7 22 -8 9 -1 13 0 10 4 -4 3 -14 7 -22 8 -9 1
-13 0 -10 -4z"/>
<path d="M5150 5260 c0 -5 5 -10 11 -10 5 0 7 5 4 10 -3 6 -8 10 -11 10 -2 0
-4 -4 -4 -10z"/>
<path d="M5219 5268 c-5 -18 -6 -38 -1 -34 7 8 12 36 6 36 -2 0 -4 -1 -5 -2z"/>
<path d="M6095 5259 c-3 -4 2 -6 10 -5 21 3 28 13 10 13 -9 0 -18 -4 -20 -8z"/>
<path d="M5295 5231 c-3 -5 -2 -12 3 -15 5 -3 9 1 9 9 0 17 -3 19 -12 6z"/>
<path d="M2806 5222 c-3 -5 1 -9 9 -9 8 0 12 4 9 9 -3 4 -7 8 -9 8 -2 0 -6 -4
-9 -8z"/>
<path d="M3615 5221 c-3 -5 -2 -12 3 -15 5 -3 9 1 9 9 0 17 -3 19 -12 6z"/>
<path d="M5930 5219 c0 -5 5 -7 10 -4 6 3 10 8 10 11 0 2 -4 4 -10 4 -5 0 -10
-5 -10 -11z"/>
<path d="M6015 5220 c-3 -5 -1 -10 4 -10 6 0 11 5 11 10 0 6 -2 10 -4 10 -3 0
-8 -4 -11 -10z"/>
<path d="M3475 5211 c-3 -5 -2 -12 3 -15 5 -3 9 1 9 9 0 17 -3 19 -12 6z"/>
<path d="M2850 5200 c0 -5 5 -10 11 -10 5 0 7 5 4 10 -3 6 -8 10 -11 10 -2 0
-4 -4 -4 -10z"/>
<path d="M2894 5196 c1 -8 5 -18 8 -22 4 -3 5 1 4 10 -1 8 -5 18 -8 22 -4 3
-5 -1 -4 -10z"/>
<path d="M3426 5202 c-3 -5 1 -9 9 -9 8 0 12 4 9 9 -3 4 -7 8 -9 8 -2 0 -6 -4
-9 -8z"/>
<path d="M3555 5179 c-3 -4 2 -6 10 -5 21 3 28 13 10 13 -9 0 -18 -4 -20 -8z"/>
<path d="M5339 5188 c-5 -18 -6 -38 -1 -34 7 8 12 36 6 36 -2 0 -4 -1 -5 -2z"/>
<path d="M5375 5180 c-3 -5 -1 -10 4 -10 6 0 11 5 11 10 0 6 -2 10 -4 10 -3 0
-8 -4 -11 -10z"/>
<path d="M5893 5175 c0 -8 4 -12 9 -9 5 3 6 10 3 15 -9 13 -12 11 -12 -6z"/>
<path d="M3270 5176 c0 -2 8 -10 18 -17 15 -13 16 -12 3 4 -13 16 -21 21 -21
13z"/>
<path d="M3315 5171 c-3 -5 -2 -12 3 -15 5 -3 9 1 9 9 0 17 -3 19 -12 6z"/>
<path d="M3385 5160 c-3 -6 1 -7 9 -4 18 7 21 14 7 14 -6 0 -13 -4 -16 -10z"/>
<path d="M3430 5160 c0 -5 5 -10 10 -10 6 0 10 5 10 10 0 6 -4 10 -10 10 -5 0
-10 -4 -10 -10z"/>
<path d="M5970 5160 c0 -5 5 -10 11 -10 5 0 7 5 4 10 -3 6 -8 10 -11 10 -2 0
-4 -4 -4 -10z"/>
<path d="M6266 5162 c-3 -5 1 -9 9 -9 8 0 12 4 9 9 -3 4 -7 8 -9 8 -2 0 -6 -4
-9 -8z"/>
<path d="M3014 5136 c1 -8 5 -18 8 -22 4 -3 5 1 4 10 -1 8 -5 18 -8 22 -4 3
-5 -1 -4 -10z"/>
<path d="M3054 5136 c1 -8 5 -18 8 -22 4 -3 5 1 4 10 -1 8 -5 18 -8 22 -4 3
-5 -1 -4 -10z"/>
<path d="M3086 5138 c3 -5 10 -6 15 -3 13 9 11 12 -6 12 -8 0 -12 -4 -9 -9z"/>
<path d="M3494 5136 c1 -8 5 -18 8 -22 4 -3 5 1 4 10 -1 8 -5 18 -8 22 -4 3
-5 -1 -4 -10z"/>
<path d="M5615 5140 c-3 -5 -1 -10 4 -10 6 0 11 5 11 10 0 6 -2 10 -4 10 -3 0
-8 -4 -11 -10z"/>
<path d="M5896 5142 c-3 -4 4 -9 15 -9 23 -2 25 3 4 10 -8 4 -16 3 -19 -1z"/>
<path d="M3589 5123 c-13 -16 -12 -17 4 -4 9 7 17 15 17 17 0 8 -8 3 -21 -13z"/>
<path d="M5435 5120 c3 -5 8 -10 11 -10 2 0 4 5 4 10 0 6 -5 10 -11 10 -5 0
-7 -4 -4 -10z"/>
<path d="M5537 5115 c-4 -8 -3 -16 1 -19 4 -3 9 4 9 15 2 23 -3 25 -10 4z"/>
<path d="M5774 5116 c1 -8 5 -18 8 -22 4 -3 5 1 4 10 -1 8 -5 18 -8 22 -4 3
-5 -1 -4 -10z"/>
<path d="M3350 5117 c0 -2 6 -10 14 -16 11 -9 16 -9 22 1 4 7 4 10 -1 6 -4 -4
-14 -3 -22 3 -7 6 -13 9 -13 6z"/>
<path d="M3094 5098 c-4 -7 -4 -10 1 -6 4 4 15 2 24 -5 14 -11 14 -10 2 6 -16
20 -18 21 -27 5z"/>
<path d="M3290 5099 c0 -5 5 -7 10 -4 6 3 10 8 10 11 0 2 -4 4 -10 4 -5 0 -10
-5 -10 -11z"/>
<path d="M4337 5104 c-1 -1 -42 -5 -92 -8 -49 -4 -97 -9 -105 -11 -25 -7 -83
-17 -115 -20 -16 -2 -30 -4 -30 -5 0 -2 -38 -11 -60 -13 -11 -2 -25 -6 -31 -9
-6 -4 -21 -9 -35 -12 -28 -5 -144 -43 -174 -55 -23 -10 -56 -23 -67 -26 -5 -2
-11 -4 -15 -5 -5 -1 -11 -2 -15 -1 -5 0 -8 -3 -8 -9 0 -5 -4 -10 -9 -10 -6 0
-49 -19 -98 -42 -48 -23 -90 -41 -92 -39 -2 1 -8 -4 -13 -13 -5 -9 -13 -14
-19 -11 -5 4 -9 3 -9 -2 0 -4 -26 -21 -57 -38 -32 -16 -66 -38 -77 -47 -11
-10 -26 -18 -33 -18 -7 0 -13 -4 -13 -8 0 -5 -16 -17 -35 -28 -19 -10 -35 -22
-35 -25 0 -4 -15 -16 -32 -28 -56 -35 -71 -45 -88 -61 -9 -8 -45 -40 -80 -70
-35 -30 -91 -81 -124 -112 -34 -32 -64 -58 -68 -58 -5 0 -8 -4 -8 -8 0 -18
-90 -103 -101 -96 -8 4 -9 3 -5 -4 6 -10 -138 -194 -168 -214 -6 -4 -8 -8 -3
-8 7 0 -51 -81 -86 -120 -8 -8 -22 -30 -33 -47 -10 -18 -22 -33 -26 -33 -4 0
-8 -7 -8 -15 0 -8 -3 -15 -8 -15 -4 0 -13 -12 -19 -27 -24 -53 -53 -94 -63
-88 -6 3 -7 -1 -4 -10 4 -8 1 -22 -6 -30 -17 -21 -66 -110 -86 -157 -9 -21
-20 -38 -25 -38 -5 0 -9 -6 -9 -13 0 -7 -8 -31 -19 -53 -48 -100 -71 -151 -71
-156 0 -3 -8 -23 -17 -44 -9 -22 -17 -41 -18 -44 -3 -8 -16 -44 -25 -65 -8
-19 -63 -185 -65 -195 -3 -20 -28 -118 -32 -130 -7 -19 -13 -39 -17 -65 -2
-11 -7 -38 -11 -60 -5 -22 -9 -47 -10 -55 -1 -8 -5 -31 -8 -50 -18 -100 -24
-152 -26 -243 -1 -41 -4 -56 -13 -51 -7 5 -8 3 -2 -7 13 -21 13 -129 0 -129
-7 0 -7 -3 -1 -8 12 -8 11 -6 19 -92 10 -106 17 -140 34 -183 7 -15 11 -31 10
-35 -1 -4 4 -17 11 -30 7 -13 10 -30 7 -38 -3 -8 -2 -13 2 -10 4 2 25 -29 47
-70 22 -41 44 -74 49 -74 5 0 6 -3 3 -6 -4 -4 5 -17 19 -29 17 -14 24 -28 19
-35 -5 -8 -4 -11 2 -7 5 3 34 -16 64 -43 30 -27 57 -50 61 -50 4 0 13 -6 20
-13 7 -6 34 -22 61 -35 26 -13 45 -27 43 -31 -3 -4 5 -7 17 -7 12 1 21 -4 20
-10 -1 -7 6 -10 18 -7 12 4 26 -2 35 -13 9 -11 12 -13 8 -5 -8 16 28 7 65 -16
13 -8 20 -10 17 -4 -8 12 7 15 18 3 4 -4 13 -7 19 -7 7 -1 11 -7 9 -15 -2 -10
0 -11 10 -2 16 12 58 12 58 0 0 -5 8 -4 19 1 10 6 22 7 26 3 8 -9 12 -9 86
-11 45 -1 58 -4 53 -13 -6 -10 -4 -10 7 -3 8 6 27 12 43 14 21 2 26 -1 20 -11
-6 -10 -3 -9 10 1 15 13 19 13 27 0 5 -8 9 -9 9 -3 0 6 26 12 63 13 34 1 80 4
102 6 120 14 126 14 118 2 -4 -7 0 -7 10 2 9 7 28 11 42 9 13 -3 22 -1 19 3
-3 5 7 9 23 10 15 0 46 3 68 6 22 3 59 6 82 7 22 0 39 4 37 7 -2 4 11 9 29 12
17 2 35 0 38 -5 4 -7 8 -6 10 1 2 6 18 13 34 16 17 2 37 6 45 8 14 4 99 17
130 21 8 1 21 5 28 9 6 5 12 6 12 3 0 -2 26 2 57 9 37 9 62 10 69 4 8 -6 14
-4 18 6 3 9 10 13 16 10 6 -4 7 -11 4 -17 -4 -7 -2 -8 5 -4 6 4 8 12 5 18 -5
7 4 9 25 6 17 -2 31 -2 31 2 0 4 6 7 13 8 28 4 65 9 112 17 28 5 57 9 65 10 9
0 21 4 28 9 7 4 12 2 12 -4 0 -6 4 -8 10 -5 21 13 125 25 263 30 69 2 78 1 73
-14 -4 -11 -1 -10 10 4 12 14 18 16 21 7 4 -10 8 -10 19 -1 8 6 14 7 14 2 0
-6 16 -8 36 -6 33 3 35 3 24 -19 -11 -22 -11 -23 5 -3 9 11 19 19 23 19 4 -1
30 -4 57 -8 136 -15 254 -39 248 -50 -4 -6 0 -6 9 1 8 7 17 10 21 7 3 -3 27
-8 54 -11 26 -3 50 -8 53 -11 3 -4 21 -8 40 -10 19 -1 82 -11 140 -22 58 -11
117 -21 133 -22 15 -1 27 -5 27 -9 0 -3 8 -6 18 -6 40 2 149 -16 175 -28 15
-8 25 -9 22 -4 -4 5 3 9 15 9 12 0 19 -3 17 -7 -3 -5 13 -9 36 -9 23 -1 43 -7
45 -13 3 -8 9 -6 18 6 7 10 14 13 14 8 0 -6 15 -11 33 -12 17 -1 59 -4 92 -7
33 -2 95 -5 137 -6 54 -2 76 -6 71 -14 -3 -6 0 -6 8 2 21 19 52 16 45 -5 -5
-16 -5 -16 8 0 10 14 25 18 53 16 21 -2 43 -1 48 2 6 3 29 5 53 4 23 0 42 3
42 7 0 5 11 6 25 4 13 -3 27 0 31 5 3 5 9 7 14 4 4 -2 27 1 51 8 25 8 54 13
66 12 12 -1 20 2 17 7 -3 4 2 9 10 9 24 2 29 4 54 17 12 7 22 10 22 7 0 -3 20
6 43 20 24 14 47 22 50 18 4 -3 7 -1 7 5 0 7 7 12 15 12 8 0 15 4 15 8 0 4 12
15 28 24 15 9 45 33 67 52 22 19 44 32 49 29 5 -3 7 -2 3 3 -8 14 20 47 34 38
7 -4 10 -3 6 3 -4 6 11 35 32 64 21 30 48 77 61 106 13 29 27 50 31 48 4 -3 5
4 2 15 -3 12 0 20 6 20 7 0 10 4 7 8 -3 5 1 28 8 53 15 50 16 53 16 75 0 8 3
13 8 11 14 -9 20 300 8 428 -5 44 -10 96 -12 115 -5 60 -12 99 -19 110 -3 5 0
10 7 10 10 0 11 2 0 8 -7 5 -14 26 -17 48 -2 21 -5 39 -6 39 -1 0 -3 9 -5 20
-4 26 -12 60 -14 60 -2 0 -7 20 -15 58 -3 16 -13 48 -21 70 -8 23 -16 49 -18
57 -5 37 -41 140 -49 140 -4 0 -6 4 -3 8 3 5 -1 21 -9 36 -10 18 -10 24 -2 20
7 -4 5 1 -4 12 -9 10 -20 29 -24 42 -4 13 -22 57 -41 98 -18 41 -30 74 -26 74
4 0 2 4 -4 8 -14 9 -65 112 -56 112 4 0 2 4 -3 8 -6 4 -23 32 -39 62 -16 30
-48 84 -70 120 -22 35 -41 70 -42 76 -1 7 -11 21 -23 33 -12 12 -21 27 -21 35
0 8 -3 16 -7 18 -13 5 -63 76 -63 87 0 6 -4 11 -9 11 -5 0 -20 17 -32 38 -13
20 -31 44 -41 53 -10 9 -18 19 -18 23 0 4 -5 12 -10 19 -6 7 -20 23 -31 37
-105 128 -326 355 -423 435 -26 22 -59 50 -73 63 -13 12 -27 22 -31 22 -4 0
-18 10 -32 23 -14 13 -47 38 -75 57 -27 18 -52 36 -55 39 -3 3 -21 14 -40 25
-19 10 -40 24 -45 31 -6 7 -20 15 -32 19 -13 4 -29 13 -35 20 -17 16 -191 102
-200 98 -5 -1 -8 2 -8 7 0 7 -36 22 -43 18 -2 -1 -14 5 -27 14 -14 8 -44 21
-68 28 -26 7 -40 16 -36 23 4 7 3 8 -4 4 -10 -6 -78 12 -162 41 -8 3 -22 7
-30 9 -8 2 -35 8 -60 14 -25 6 -56 12 -70 15 -32 5 -65 13 -65 15 0 2 -15 3
-150 15 -82 7 -293 13 -298 9z"/>
<path d="M5494 5096 c1 -8 5 -18 8 -22 4 -3 5 1 4 10 -1 8 -5 18 -8 22 -4 3
-5 -1 -4 -10z"/>
<path d="M5856 5102 c-3 -4 4 -9 15 -9 23 -2 25 3 4 10 -8 4 -16 3 -19 -1z"/>
<path d="M3553 5085 c0 -8 4 -12 9 -9 5 3 6 10 3 15 -9 13 -12 11 -12 -6z"/>
<path d="M3219 5088 c-5 -18 -6 -38 -1 -34 7 8 12 36 6 36 -2 0 -4 -1 -5 -2z"/>
<path d="M3410 5080 c0 -5 5 -10 11 -10 5 0 7 5 4 10 -3 6 -8 10 -11 10 -2 0
-4 -4 -4 -10z"/>
<path d="M5430 5085 c0 -5 5 -17 10 -25 5 -8 10 -10 10 -5 0 6 -5 17 -10 25
-5 8 -10 11 -10 5z"/>
<path d="M5910 5079 c0 -5 5 -7 10 -4 6 3 10 8 10 11 0 2 -4 4 -10 4 -5 0 -10
-5 -10 -11z"/>
<path d="M5795 5071 c-3 -5 -2 -12 3 -15 5 -3 9 1 9 9 0 17 -3 19 -12 6z"/>
<path d="M5616 5058 c3 -4 11 -5 19 -1 21 7 19 12 -4 10 -11 0 -18 -5 -15 -9z"/>
<path d="M5750 5059 c0 -5 5 -7 10 -4 6 3 10 8 10 11 0 2 -4 4 -10 4 -5 0 -10
-5 -10 -11z"/>
<path d="M5795 4891 c-3 -5 -2 -12 3 -15 5 -3 9 1 9 9 0 17 -3 19 -12 6z"/>
<path d="M310 4641 c0 -6 4 -13 10 -16 6 -3 7 1 4 9 -7 18 -14 21 -14 7z"/>
<path d="M8470 4439 c0 -5 5 -7 10 -4 6 3 10 8 10 11 0 2 -4 4 -10 4 -5 0 -10
-5 -10 -11z"/>
<path d="M8196 4115 c-9 -26 -7 -32 5 -12 6 10 9 21 6 23 -2 3 -7 -2 -11 -11z"/>
<path d="M6670 4082 c0 -5 7 -9 15 -9 8 0 12 4 9 9 -3 4 -9 8 -15 8 -5 0 -9
-4 -9 -8z"/>
<path d="M760 4000 c8 -5 20 -10 25 -10 6 0 3 5 -5 10 -8 5 -19 10 -25 10 -5
0 -3 -5 5 -10z"/>
<path d="M836 3978 c3 -5 10 -6 15 -3 13 9 11 12 -6 12 -8 0 -12 -4 -9 -9z"/>
<path d="M875 3920 c3 -5 8 -10 11 -10 2 0 4 5 4 10 0 6 -5 10 -11 10 -5 0 -7
-4 -4 -10z"/>
<path d="M8046 3922 c-3 -5 1 -9 9 -9 8 0 15 4 15 9 0 4 -4 8 -9 8 -6 0 -12
-4 -15 -8z"/>
<path d="M935 3900 c3 -5 8 -10 11 -10 2 0 4 5 4 10 0 6 -5 10 -11 10 -5 0 -7
-4 -4 -10z"/>
<path d="M1940 3880 c8 -5 20 -10 25 -10 6 0 3 5 -5 10 -8 5 -19 10 -25 10 -5
0 -3 -5 5 -10z"/>
<path d="M950 3865 c0 -7 30 -13 34 -7 3 4 -4 9 -15 9 -10 1 -19 0 -19 -2z"/>
<path d="M7056 3858 c3 -5 10 -6 15 -3 13 9 11 12 -6 12 -8 0 -12 -4 -9 -9z"/>
<path d="M7850 3859 c0 -5 5 -7 10 -4 6 3 10 8 10 11 0 2 -4 4 -10 4 -5 0 -10
-5 -10 -11z"/>
<path d="M6945 3840 c-3 -6 1 -7 9 -4 18 7 21 14 7 14 -6 0 -13 -4 -16 -10z"/>
<path d="M1056 3818 c3 -4 11 -5 19 -1 21 7 19 12 -4 10 -11 0 -18 -5 -15 -9z"/>
<path d="M7899 3828 c-5 -18 -6 -38 -1 -34 7 8 12 36 6 36 -2 0 -4 -1 -5 -2z"/>
<path d="M1106 3798 c3 -5 10 -6 15 -3 13 9 11 12 -6 12 -8 0 -12 -4 -9 -9z"/>
<path d="M7750 3801 c0 -6 4 -12 8 -15 5 -3 9 1 9 9 0 8 -4 15 -9 15 -4 0 -8
-4 -8 -9z"/>
<path d="M990 3785 c0 -7 30 -13 34 -7 3 4 -4 9 -15 9 -10 1 -19 0 -19 -2z"/>
<path d="M1055 3779 c-3 -4 2 -6 10 -5 21 3 28 13 10 13 -9 0 -18 -4 -20 -8z"/>
<path d="M1655 3780 c-3 -5 -1 -10 4 -10 6 0 11 5 11 10 0 6 -2 10 -4 10 -3 0
-8 -4 -11 -10z"/>
<path d="M1776 3782 c-3 -5 1 -9 9 -9 8 0 12 4 9 9 -3 4 -7 8 -9 8 -2 0 -6 -4
-9 -8z"/>
<path d="M7115 3779 c-3 -4 2 -6 10 -5 21 3 28 13 10 13 -9 0 -18 -4 -20 -8z"/>
<path d="M7215 3780 c-3 -5 -1 -10 4 -10 6 0 11 5 11 10 0 6 -2 10 -4 10 -3 0
-8 -4 -11 -10z"/>
<path d="M7814 3776 c1 -8 5 -18 8 -22 4 -3 5 1 4 10 -1 8 -5 18 -8 22 -4 3
-5 -1 -4 -10z"/>
<path d="M1700 3766 c0 -2 8 -10 18 -17 15 -13 16 -12 3 4 -13 16 -21 21 -21
13z"/>
<path d="M7670 3761 c0 -6 4 -13 10 -16 6 -3 7 1 4 9 -7 18 -14 21 -14 7z"/>
<path d="M8090 3761 c0 -6 4 -13 10 -16 6 -3 7 1 4 9 -7 18 -14 21 -14 7z"/>
<path d="M1074 3742 c4 -3 14 -7 22 -8 9 -1 13 0 10 4 -4 3 -14 7 -22 8 -9 1
-13 0 -10 -4z"/>
<path d="M1136 3738 c3 -4 11 -5 19 -1 21 7 19 12 -4 10 -11 0 -18 -5 -15 -9z"/>
<path d="M7495 3740 c3 -5 8 -10 11 -10 2 0 4 5 4 10 0 6 -5 10 -11 10 -5 0
-7 -4 -4 -10z"/>
<path d="M7530 3740 c0 -5 5 -10 11 -10 5 0 7 5 4 10 -3 6 -8 10 -11 10 -2 0
-4 -4 -4 -10z"/>
<path d="M7755 3739 c-3 -4 2 -6 10 -5 21 3 28 13 10 13 -9 0 -18 -4 -20 -8z"/>
<path d="M1030 3736 c0 -2 8 -10 18 -17 15 -13 16 -12 3 4 -13 16 -21 21 -21
13z"/>
<path d="M1259 3728 c-5 -18 -6 -38 -1 -34 7 8 12 36 6 36 -2 0 -4 -1 -5 -2z"/>
<path d="M1453 3711 c0 -11 5 -18 9 -15 4 3 5 11 1 19 -7 21 -12 19 -10 -4z"/>
<path d="M1497 3715 c-4 -8 -3 -16 1 -19 4 -3 9 4 9 15 2 23 -3 25 -10 4z"/>
<path d="M7294 3716 c1 -8 5 -18 8 -22 4 -3 5 1 4 10 -1 8 -5 18 -8 22 -4 3
-5 -1 -4 -10z"/>
<path d="M7386 3722 c-3 -5 1 -9 9 -9 8 0 12 4 9 9 -3 4 -7 8 -9 8 -2 0 -6 -4
-9 -8z"/>
<path d="M7596 3722 c-3 -5 1 -9 9 -9 8 0 12 4 9 9 -3 4 -7 8 -9 8 -2 0 -6 -4
-9 -8z"/>
<path d="M1616 3702 c-3 -5 1 -9 9 -9 8 0 12 4 9 9 -3 4 -7 8 -9 8 -2 0 -6 -4
-9 -8z"/>
<path d="M7455 3700 c3 -5 8 -10 11 -10 2 0 4 5 4 10 0 6 -5 10 -11 10 -5 0
-7 -4 -4 -10z"/>
<path d="M7635 3699 c-3 -4 2 -6 10 -5 21 3 28 13 10 13 -9 0 -18 -4 -20 -8z"/>
<path d="M7695 3699 c-3 -4 2 -6 10 -5 21 3 28 13 10 13 -9 0 -18 -4 -20 -8z"/>
<path d="M1587 3679 c7 -7 15 -10 18 -7 3 3 -2 9 -12 12 -14 6 -15 5 -6 -5z"/>
<path d="M1366 3658 c3 -5 10 -6 15 -3 13 9 11 12 -6 12 -8 0 -12 -4 -9 -9z"/>
<path d="M1493 3649 c-2 -23 3 -25 10 -4 4 8 3 16 -1 19 -4 3 -9 -4 -9 -15z"/>
<path d="M7360 3660 c-12 -7 -10 -9 7 -7 12 0 19 5 17 9 -6 10 -6 10 -24 -2z"/>
<path d="M7439 3653 c-12 -16 -12 -17 2 -6 9 7 20 9 24 5 5 -4 5 -1 1 6 -9 16
-11 15 -27 -5z"/>
<path d="M7534 3656 c1 -8 5 -18 8 -22 4 -3 5 1 4 10 -1 8 -5 18 -8 22 -4 3
-5 -1 -4 -10z"/>
<path d="M7635 3660 c-3 -5 -1 -10 4 -10 6 0 11 5 11 10 0 6 -2 10 -4 10 -3 0
-8 -4 -11 -10z"/>
<path d="M1327 3639 c7 -7 15 -10 18 -7 3 3 -2 9 -12 12 -14 6 -15 5 -6 -5z"/>
<path d="M1410 3640 c0 -5 5 -10 11 -10 5 0 7 5 4 10 -3 6 -8 10 -11 10 -2 0
-4 -4 -4 -10z"/>
<path d="M7595 3641 c-3 -5 -2 -12 3 -15 5 -3 9 1 9 9 0 17 -3 19 -12 6z"/>
<path d="M7315 3611 c-3 -5 -2 -12 3 -15 5 -3 9 1 9 9 0 17 -3 19 -12 6z"/>
<path d="M1787 3599 c7 -7 15 -10 18 -7 3 3 -2 9 -12 12 -14 6 -15 5 -6 -5z"/>
<path d="M7430 3481 c0 -6 4 -13 10 -16 6 -3 7 1 4 9 -7 18 -14 21 -14 7z"/>
<path d="M6995 1480 c3 -5 8 -10 11 -10 2 0 4 5 4 10 0 6 -5 10 -11 10 -5 0
-7 -4 -4 -10z"/>
<path d="M4340 1366 c0 -2 8 -10 18 -17 15 -13 16 -12 3 4 -13 16 -21 21 -21
13z"/>
<path d="M7030 1356 c0 -2 8 -10 18 -17 15 -13 16 -12 3 4 -13 16 -21 21 -21
13z"/>
<path d="M1990 1341 c0 -6 4 -13 10 -16 6 -3 7 1 4 9 -7 18 -14 21 -14 7z"/>
<path d="M6819 1328 c-5 -18 -6 -38 -1 -34 7 8 12 36 6 36 -2 0 -4 -1 -5 -2z"/>
<path d="M2034 1302 c4 -3 14 -7 22 -8 9 -1 13 0 10 4 -4 3 -14 7 -22 8 -9 1
-13 0 -10 -4z"/>
<path d="M4675 1291 c-3 -5 -2 -12 3 -15 5 -3 9 1 9 9 0 17 -3 19 -12 6z"/>
<path d="M4834 1280 c0 -13 4 -16 10 -10 7 7 7 13 0 20 -6 6 -10 3 -10 -10z"/>
<path d="M4630 1279 c0 -5 5 -7 10 -4 6 3 10 8 10 11 0 2 -4 4 -10 4 -5 0 -10
-5 -10 -11z"/>
<path d="M4535 1271 c-3 -5 -2 -12 3 -15 5 -3 9 1 9 9 0 17 -3 19 -12 6z"/>
<path d="M2094 1262 c4 -3 14 -7 22 -8 9 -1 13 0 10 4 -4 3 -14 7 -22 8 -9 1
-13 0 -10 -4z"/>
<path d="M3895 1260 c-3 -5 -1 -10 4 -10 6 0 11 5 11 10 0 6 -2 10 -4 10 -3 0
-8 -4 -11 -10z"/>
<path d="M4130 1260 c0 -5 5 -10 11 -10 5 0 7 5 4 10 -3 6 -8 10 -11 10 -2 0
-4 -4 -4 -10z"/>
<path d="M4170 1259 c0 -5 5 -7 10 -4 6 3 10 8 10 11 0 2 -4 4 -10 4 -5 0 -10
-5 -10 -11z"/>
<path d="M4210 1260 c0 -5 5 -10 11 -10 5 0 7 5 4 10 -3 6 -8 10 -11 10 -2 0
-4 -4 -4 -10z"/>
<path d="M4450 1259 c0 -5 5 -7 10 -4 6 3 10 8 10 11 0 2 -4 4 -10 4 -5 0 -10
-5 -10 -11z"/>
<path d="M4495 1260 c-3 -5 -1 -10 4 -10 6 0 11 5 11 10 0 6 -2 10 -4 10 -3 0
-8 -4 -11 -10z"/>
<path d="M4890 1259 c0 -5 5 -7 10 -4 6 3 10 8 10 11 0 2 -4 4 -10 4 -5 0 -10
-5 -10 -11z"/>
<path d="M6995 1251 c-3 -5 -2 -12 3 -15 5 -3 9 1 9 9 0 17 -3 19 -12 6z"/>
<path d="M3639 1233 c-13 -16 -12 -17 4 -4 9 7 17 15 17 17 0 8 -8 3 -21 -13z"/>
<path d="M3680 1240 c-9 -6 -10 -10 -3 -10 6 0 15 5 18 10 8 12 4 12 -15 0z"/>
<path d="M3946 1242 c-3 -5 1 -9 9 -9 8 0 12 4 9 9 -3 4 -7 8 -9 8 -2 0 -6 -4
-9 -8z"/>
<path d="M4835 1241 c-3 -5 -2 -12 3 -15 5 -3 9 1 9 9 0 17 -3 19 -12 6z"/>
<path d="M3775 1220 c3 -5 8 -10 11 -10 2 0 4 5 4 10 0 6 -5 10 -11 10 -5 0
-7 -4 -4 -10z"/>
<path d="M3810 1220 c0 -5 5 -10 11 -10 5 0 7 5 4 10 -3 6 -8 10 -11 10 -2 0
-4 -4 -4 -10z"/>
<path d="M3850 1219 c0 -5 5 -7 10 -4 6 3 10 8 10 11 0 2 -4 4 -10 4 -5 0 -10
-5 -10 -11z"/>
<path d="M3895 1220 c-3 -5 -1 -10 4 -10 6 0 11 5 11 10 0 6 -2 10 -4 10 -3 0
-8 -4 -11 -10z"/>
<path d="M4135 1219 c-3 -4 2 -6 10 -5 21 3 28 13 10 13 -9 0 -18 -4 -20 -8z"/>
<path d="M4293 1215 c0 -8 4 -12 9 -9 5 3 6 10 3 15 -9 13 -12 11 -12 -6z"/>
<path d="M4376 1218 c3 -4 11 -5 19 -1 21 7 19 12 -4 10 -11 0 -18 -5 -15 -9z"/>
<path d="M4550 1225 c0 -7 30 -13 34 -7 3 4 -4 9 -15 9 -10 1 -19 0 -19 -2z"/>
<path d="M4653 1223 c4 -3 1 -13 -6 -22 -11 -14 -10 -14 5 -2 16 12 16 31 1
31 -4 0 -3 -3 0 -7z"/>
<path d="M4734 1222 c4 -3 14 -7 22 -8 9 -1 13 0 10 4 -4 3 -14 7 -22 8 -9 1
-13 0 -10 -4z"/>
<path d="M4930 1219 c0 -5 5 -7 10 -4 6 3 10 8 10 11 0 2 -4 4 -10 4 -5 0 -10
-5 -10 -11z"/>
<path d="M5175 1220 c3 -5 8 -10 11 -10 2 0 4 5 4 10 0 6 -5 10 -11 10 -5 0
-7 -4 -4 -10z"/>
<path d="M6674 1222 c4 -3 14 -7 22 -8 9 -1 13 0 10 4 -4 3 -14 7 -22 8 -9 1
-13 0 -10 -4z"/>
<path d="M3513 1205 c0 -8 4 -12 9 -9 5 3 6 10 3 15 -9 13 -12 11 -12 -6z"/>
<path d="M2070 1199 c0 -5 5 -7 10 -4 6 3 10 8 10 11 0 2 -4 4 -10 4 -5 0 -10
-5 -10 -11z"/>
<path d="M3580 1206 c0 -2 8 -10 18 -17 15 -13 16 -12 3 4 -13 16 -21 21 -21
13z"/>
<path d="M3626 1198 c3 -5 10 -6 15 -3 13 9 11 12 -6 12 -8 0 -12 -4 -9 -9z"/>
<path d="M3710 1200 c0 -5 5 -10 11 -10 5 0 7 5 4 10 -3 6 -8 10 -11 10 -2 0
-4 -4 -4 -10z"/>
<path d="M4854 1196 c1 -8 5 -18 8 -22 4 -3 5 1 4 10 -1 8 -5 18 -8 22 -4 3
-5 -1 -4 -10z"/>
<path d="M5546 1198 c3 -4 9 -8 15 -8 5 0 9 4 9 8 0 5 -7 9 -15 9 -8 0 -12 -4
-9 -9z"/>
<path d="M2295 1191 c-3 -5 -2 -12 3 -15 5 -3 9 1 9 9 0 17 -3 19 -12 6z"/>
<path d="M2150 1180 c0 -5 5 -10 11 -10 5 0 7 5 4 10 -3 6 -8 10 -11 10 -2 0
-4 -4 -4 -10z"/>
<path d="M2255 1180 c-3 -5 -1 -10 4 -10 6 0 11 5 11 10 0 6 -2 10 -4 10 -3 0
-8 -4 -11 -10z"/>
<path d="M3790 1185 c0 -7 30 -13 34 -7 3 4 -4 9 -15 9 -10 1 -19 0 -19 -2z"/>
<path d="M3915 1179 c-3 -4 2 -6 10 -5 21 3 28 13 10 13 -9 0 -18 -4 -20 -8z"/>
<path d="M4096 1182 c-3 -4 4 -9 15 -9 23 -2 25 3 4 10 -8 4 -16 3 -19 -1z"/>
<path d="M4230 1180 c0 -5 5 -10 11 -10 5 0 7 5 4 10 -3 6 -8 10 -11 10 -2 0
-4 -4 -4 -10z"/>
<path d="M4275 1180 c-3 -5 -1 -10 4 -10 6 0 11 5 11 10 0 6 -2 10 -4 10 -3 0
-8 -4 -11 -10z"/>
<path d="M4350 1180 c0 -5 5 -10 11 -10 5 0 7 5 4 10 -3 6 -8 10 -11 10 -2 0
-4 -4 -4 -10z"/>
<path d="M4395 1180 c-3 -5 -1 -10 4 -10 6 0 11 5 11 10 0 6 -2 10 -4 10 -3 0
-8 -4 -11 -10z"/>
<path d="M4935 1179 c-3 -4 2 -6 10 -5 21 3 28 13 10 13 -9 0 -18 -4 -20 -8z"/>
<path d="M5055 1180 c3 -5 8 -10 11 -10 2 0 4 5 4 10 0 6 -5 10 -11 10 -5 0
-7 -4 -4 -10z"/>
<path d="M5150 1185 c0 -7 30 -13 34 -7 3 4 -4 9 -15 9 -10 1 -19 0 -19 -2z"/>
<path d="M5335 1180 c-3 -5 -1 -10 4 -10 6 0 11 5 11 10 0 6 -2 10 -4 10 -3 0
-8 -4 -11 -10z"/>
<path d="M5370 1179 c0 -5 5 -7 10 -4 6 3 10 8 10 11 0 2 -4 4 -10 4 -5 0 -10
-5 -10 -11z"/>
<path d="M5513 1165 c0 -8 4 -12 9 -9 5 3 6 10 3 15 -9 13 -12 11 -12 -6z"/>
<path d="M6753 1165 c0 -8 4 -12 9 -9 5 3 6 10 3 15 -9 13 -12 11 -12 -6z"/>
<path d="M2959 1153 c-13 -16 -12 -17 4 -4 9 7 17 15 17 17 0 8 -8 3 -21 -13z"/>
<path d="M3590 1161 c0 -6 4 -13 10 -16 6 -3 7 1 4 9 -7 18 -14 21 -14 7z"/>
<path d="M3966 1162 c-3 -5 1 -9 9 -9 8 0 12 4 9 9 -3 4 -7 8 -9 8 -2 0 -6 -4
-9 -8z"/>
<path d="M5550 1159 c0 -5 5 -7 10 -4 6 3 10 8 10 11 0 2 -4 4 -10 4 -5 0 -10
-5 -10 -11z"/>
<path d="M6539 1168 c-5 -18 -6 -38 -1 -34 7 8 12 36 6 36 -2 0 -4 -1 -5 -2z"/>
<path d="M2415 1140 c-3 -5 -1 -10 4 -10 6 0 11 5 11 10 0 6 -2 10 -4 10 -3 0
-8 -4 -11 -10z"/>
<path d="M2610 1140 c0 -5 5 -10 11 -10 5 0 7 5 4 10 -3 6 -8 10 -11 10 -2 0
-4 -4 -4 -10z"/>
<path d="M3410 1140 c0 -5 5 -10 11 -10 5 0 7 5 4 10 -3 6 -8 10 -11 10 -2 0
-4 -4 -4 -10z"/>
<path d="M3539 1148 c-5 -18 -6 -38 -1 -34 7 8 12 36 6 36 -2 0 -4 -1 -5 -2z"/>
<path d="M3655 1141 c-3 -5 -2 -12 3 -15 5 -3 9 1 9 9 0 17 -3 19 -12 6z"/>
<path d="M5166 1142 c-3 -5 1 -9 9 -9 8 0 12 4 9 9 -3 4 -7 8 -9 8 -2 0 -6 -4
-9 -8z"/>
<path d="M5259 1148 c-5 -18 -6 -38 -1 -34 7 8 12 36 6 36 -2 0 -4 -1 -5 -2z"/>
<path d="M5373 1135 c0 -8 4 -12 9 -9 5 3 6 10 3 15 -9 13 -12 11 -12 -6z"/>
<path d="M5410 1139 c0 -5 5 -7 10 -4 6 3 10 8 10 11 0 2 -4 4 -10 4 -5 0 -10
-5 -10 -11z"/>
<path d="M5610 1140 c0 -5 5 -10 11 -10 5 0 7 5 4 10 -3 6 -8 10 -11 10 -2 0
-4 -4 -4 -10z"/>
<path d="M5650 1140 c0 -5 5 -10 11 -10 5 0 7 5 4 10 -3 6 -8 10 -11 10 -2 0
-4 -4 -4 -10z"/>
<path d="M6575 1140 c-3 -5 -1 -10 4 -10 6 0 11 5 11 10 0 6 -2 10 -4 10 -3 0
-8 -4 -11 -10z"/>
<path d="M6670 1139 c0 -5 5 -7 10 -4 6 3 10 8 10 11 0 2 -4 4 -10 4 -5 0 -10
-5 -10 -11z"/>
<path d="M2760 1120 c-9 -6 -10 -10 -3 -10 6 0 15 5 18 10 8 12 4 12 -15 0z"/>
<path d="M2955 1121 c-3 -5 -2 -12 3 -15 5 -3 9 1 9 9 0 17 -3 19 -12 6z"/>
<path d="M3030 1120 c0 -5 5 -10 11 -10 5 0 7 5 4 10 -3 6 -8 10 -11 10 -2 0
-4 -4 -4 -10z"/>
<path d="M4399 1113 c-13 -16 -12 -17 4 -4 9 7 17 15 17 17 0 8 -8 3 -21 -13z"/>
<path d="M5515 1120 c3 -5 8 -10 11 -10 2 0 4 5 4 10 0 6 -5 10 -11 10 -5 0
-7 -4 -4 -10z"/>
<path d="M5550 1122 c0 -5 7 -9 15 -9 8 0 12 4 9 9 -3 4 -9 8 -15 8 -5 0 -9
-4 -9 -8z"/>
<path d="M3413 1105 c0 -8 4 -12 9 -9 5 3 6 10 3 15 -9 13 -12 11 -12 -6z"/>
<path d="M6455 1111 c-3 -5 -2 -12 3 -15 5 -3 9 1 9 9 0 17 -3 19 -12 6z"/>
<path d="M2334 1096 c1 -8 5 -18 8 -22 4 -3 5 1 4 10 -1 8 -5 18 -8 22 -4 3
-5 -1 -4 -10z"/>
<path d="M2399 1093 c-12 -16 -12 -17 2 -6 9 7 20 9 24 5 5 -4 5 -1 1 6 -9 16
-11 15 -27 -5z"/>
<path d="M2454 1102 c4 -3 14 -7 22 -8 9 -1 13 0 10 4 -4 3 -14 7 -22 8 -9 1
-13 0 -10 -4z"/>
<path d="M2535 1100 c-3 -5 -1 -10 4 -10 6 0 11 5 11 10 0 6 -2 10 -4 10 -3 0
-8 -4 -11 -10z"/>
<path d="M2570 1099 c0 -5 5 -7 10 -4 6 3 10 8 10 11 0 2 -4 4 -10 4 -5 0 -10
-5 -10 -11z"/>
<path d="M2695 1100 c3 -5 8 -10 11 -10 2 0 4 5 4 10 0 6 -5 10 -11 10 -5 0
-7 -4 -4 -10z"/>
<path d="M3314 1102 c4 -3 14 -7 22 -8 9 -1 13 0 10 4 -4 3 -14 7 -22 8 -9 1
-13 0 -10 -4z"/>
<path d="M5454 1102 c4 -3 14 -7 22 -8 9 -1 13 0 10 4 -4 3 -14 7 -22 8 -9 1
-13 0 -10 -4z"/>
<path d="M5655 1100 c3 -5 8 -10 11 -10 2 0 4 5 4 10 0 6 -5 10 -11 10 -5 0
-7 -4 -4 -10z"/>
<path d="M5850 1099 c0 -5 5 -7 10 -4 6 3 10 8 10 11 0 2 -4 4 -10 4 -5 0 -10
-5 -10 -11z"/>
<path d="M5890 1099 c0 -5 5 -7 10 -4 6 3 10 8 10 11 0 2 -4 4 -10 4 -5 0 -10
-5 -10 -11z"/>
<path d="M6135 1100 c3 -5 8 -10 11 -10 2 0 4 5 4 10 0 6 -5 10 -11 10 -5 0
-7 -4 -4 -10z"/>
<path d="M6170 1100 c0 -5 5 -10 11 -10 5 0 7 5 4 10 -3 6 -8 10 -11 10 -2 0
-4 -4 -4 -10z"/>
<path d="M6290 1100 c0 -5 5 -10 11 -10 5 0 7 5 4 10 -3 6 -8 10 -11 10 -2 0
-4 -4 -4 -10z"/>
<path d="M6370 1099 c0 -5 5 -7 10 -4 6 3 10 8 10 11 0 2 -4 4 -10 4 -5 0 -10
-5 -10 -11z"/>
<path d="M6416 1102 c-3 -5 1 -9 9 -9 8 0 12 4 9 9 -3 4 -7 8 -9 8 -2 0 -6 -4
-9 -8z"/>
<path d="M3795 1089 c-4 -6 -5 -12 -2 -15 2 -3 7 2 10 11 7 17 1 20 -8 4z"/>
<path d="M5075 1091 c-3 -5 -2 -12 3 -15 5 -3 9 1 9 9 0 17 -3 19 -12 6z"/>
<path d="M2755 1081 c-3 -5 -2 -12 3 -15 5 -3 9 1 9 9 0 17 -3 19 -12 6z"/>
<path d="M2993 1075 c0 -8 4 -12 9 -9 5 3 6 10 3 15 -9 13 -12 11 -12 -6z"/>
<path d="M3059 1088 c-5 -18 -6 -38 -1 -34 7 8 12 36 6 36 -2 0 -4 -1 -5 -2z"/>
<path d="M3094 1076 c1 -8 5 -18 8 -22 4 -3 5 1 4 10 -1 8 -5 18 -8 22 -4 3
-5 -1 -4 -10z"/>
<path d="M3179 1088 c-5 -18 -6 -38 -1 -34 7 8 12 36 6 36 -2 0 -4 -1 -5 -2z"/>
<path d="M6530 1079 c0 -5 5 -7 10 -4 6 3 10 8 10 11 0 2 -4 4 -10 4 -5 0 -10
-5 -10 -11z"/>
<path d="M2575 1071 c-3 -5 -2 -12 3 -15 5 -3 9 1 9 9 0 17 -3 19 -12 6z"/>
<path d="M2693 1065 c0 -8 4 -12 9 -9 5 3 6 10 3 15 -9 13 -12 11 -12 -6z"/>
<path d="M6133 1065 c0 -8 4 -12 9 -9 5 3 6 10 3 15 -9 13 -12 11 -12 -6z"/>
<path d="M2835 1059 c-3 -4 2 -6 10 -5 21 3 28 13 10 13 -9 0 -18 -4 -20 -8z"/>
<path d="M2930 1060 c0 -5 5 -10 11 -10 5 0 7 5 4 10 -3 6 -8 10 -11 10 -2 0
-4 -4 -4 -10z"/>
<path d="M3206 1058 c3 -5 10 -6 15 -3 13 9 11 12 -6 12 -8 0 -12 -4 -9 -9z"/>
<path d="M3299 1068 c-5 -18 -6 -38 -1 -34 7 8 12 36 6 36 -2 0 -4 -1 -5 -2z"/>
<path d="M5590 1060 c0 -5 5 -10 11 -10 5 0 7 5 4 10 -3 6 -8 10 -11 10 -2 0
-4 -4 -4 -10z"/>
<path d="M5770 1059 c0 -5 5 -7 10 -4 6 3 10 8 10 11 0 2 -4 4 -10 4 -5 0 -10
-5 -10 -11z"/>
<path d="M5995 1059 c-3 -4 2 -6 10 -5 21 3 28 13 10 13 -9 0 -18 -4 -20 -8z"/>
<path d="M6295 1059 c-3 -4 2 -6 10 -5 21 3 28 13 10 13 -9 0 -18 -4 -20 -8z"/>
<path d="M2813 1031 c0 -11 5 -18 9 -15 4 3 5 11 1 19 -7 21 -12 19 -10 -4z"/>
<path d="M3435 1040 c-3 -5 -1 -10 4 -10 6 0 11 5 11 10 0 6 -2 10 -4 10 -3 0
-8 -4 -11 -10z"/>
<path d="M5716 1038 c3 -5 10 -6 15 -3 13 9 11 12 -6 12 -8 0 -12 -4 -9 -9z"/>
<path d="M5895 1031 c-3 -5 -2 -12 3 -15 5 -3 9 1 9 9 0 17 -3 19 -12 6z"/>
<path d="M3016 1018 c3 -5 10 -6 15 -3 13 9 11 12 -6 12 -8 0 -12 -4 -9 -9z"/>
<path d="M3239 1028 c-5 -18 -6 -38 -1 -34 7 8 12 36 6 36 -2 0 -4 -1 -5 -2z"/>
<path d="M5955 1019 c-3 -4 2 -6 10 -5 21 3 28 13 10 13 -9 0 -18 -4 -20 -8z"/>
<path d="M6030 1020 c0 -5 5 -10 11 -10 5 0 7 5 4 10 -3 6 -8 10 -11 10 -2 0
-4 -4 -4 -10z"/>
<path d="M2610 999 c0 -5 5 -7 10 -4 6 3 10 8 10 11 0 2 -4 4 -10 4 -5 0 -10
-5 -10 -11z"/>
<path d="M2767 999 c7 -7 15 -10 18 -7 3 3 -2 9 -12 12 -14 6 -15 5 -6 -5z"/>
<path d="M4310 1006 c0 -2 7 -7 16 -10 8 -3 12 -2 9 4 -6 10 -25 14 -25 6z"/>
<path d="M5505 1000 c-3 -6 1 -7 9 -4 18 7 21 14 7 14 -6 0 -13 -4 -16 -10z"/>
<path d="M5690 1006 c0 -2 7 -7 16 -10 8 -3 12 -2 9 4 -6 10 -25 14 -25 6z"/>
<path d="M6286 1002 c-3 -5 1 -9 9 -9 8 0 12 4 9 9 -3 4 -7 8 -9 8 -2 0 -6 -4
-9 -8z"/>
<path d="M5996 958 c3 -5 10 -6 15 -3 13 9 11 12 -6 12 -8 0 -12 -4 -9 -9z"/>
<path d="M6336 958 c3 -5 10 -6 15 -3 13 9 11 12 -6 12 -8 0 -12 -4 -9 -9z"/>
<path d="M2750 856 c0 -2 8 -10 18 -17 15 -13 16 -12 3 4 -13 16 -21 21 -21
13z"/>
<path d="M2655 811 c-3 -5 -2 -12 3 -15 5 -3 9 1 9 9 0 17 -3 19 -12 6z"/>
</g>
</svg>
