<svg width="357.000000" height="43.000000" viewBox="0 0 357 43" fill="none" xmlns="http://www.w3.org/2000/svg" xmlns:xlink="http://www.w3.org/1999/xlink">
	<desc>
			Created with Pixso.
	</desc>
	<defs>
		<clipPath id="clip53_164">
			<rect id="pawprints 1" width="31.000000" height="31.000000" transform="translate(325.999969 0.000000)" fill="white" fill-opacity="0"/>
		</clipPath>
	</defs>
	<path id="Friendly House" d="M1.56 33C0.97 33 0.47 32.79 0.07 32.39C-0.33 32 -0.53 31.5 -0.53 30.91L-0.53 3.83Q-0.53 3.21 -0.25 2.75Q-0.12 2.54 0.07 2.35Q0.34 2.09 0.65 1.94Q1.06 1.75 1.56 1.75L19.64 1.75C20.25 1.75 20.74 1.94 21.12 2.31Q21.27 2.46 21.39 2.64Q21.68 3.09 21.68 3.71Q21.68 4.26 21.44 4.67Q21.31 4.89 21.12 5.07C20.74 5.42 20.25 5.59 19.64 5.59L3.63 5.59L3.63 15.31L15.12 15.31C15.73 15.31 16.22 15.5 16.6 15.87C16.97 16.22 17.16 16.67 17.16 17.23Q17.16 17.74 16.95 18.14Q16.82 18.41 16.6 18.63C16.22 18.98 15.73 19.15 15.12 19.15L3.63 19.15L3.63 30.91C3.63 31.5 3.44 32 3.03 32.39Q2.77 32.66 2.46 32.81Q2.05 33 1.56 33ZM120.15 33.15C118.07 33.15 116.19 32.67 114.51 31.71Q113.39 31.05 112.47 30.16Q111.36 29.1 110.55 27.71C109.59 26.03 109.11 24.14 109.11 22.03C109.11 19.93 109.55 18.05 110.43 16.39C111.33 14.71 112.56 13.39 114.11 12.43C115.65 11.45 117.4 10.96 119.35 10.96C120.92 10.96 122.37 11.29 123.71 11.96C125.04 12.59 126.16 13.48 127.07 14.59L127.07 3.79Q127.07 3.11 127.38 2.62Q127.49 2.46 127.63 2.31Q127.85 2.11 128.11 1.98L128.11 1.98L128.11 1.98Q128.56 1.75 129.11 1.75C129.72 1.75 130.21 1.94 130.59 2.31C130.96 2.69 131.15 3.18 131.15 3.79L131.15 22.03Q131.15 24.49 130.25 26.56Q130 27.16 129.67 27.71C128.71 29.39 127.4 30.73 125.75 31.71C124.09 32.67 122.23 33.15 120.15 33.15ZM143.55 33C142.38 33 141.34 32.67 140.43 32.03C139.53 31.39 138.82 30.53 138.31 29.43C137.81 28.31 137.55 27.03 137.55 25.59L137.55 3.75C137.55 3.17 137.74 2.69 138.11 2.31C138.49 1.94 138.97 1.75 139.55 1.75C140.14 1.75 140.62 1.94 140.99 2.31C141.37 2.69 141.55 3.17 141.55 3.75L141.55 25.59C141.55 26.58 141.74 27.39 142.11 28.03C142.49 28.67 142.97 29 143.55 29L144.55 29C145.09 29 145.51 29.18 145.83 29.55C146.18 29.93 146.35 30.41 146.35 31C146.35 31.58 146.1 32.06 145.59 32.43C145.09 32.81 144.43 33 143.63 33L143.55 33ZM186.11 33C185.52 33 185.03 32.79 184.63 32.39C184.23 32 184.03 31.5 184.03 30.91L184.03 3.83C184.03 3.22 184.23 2.73 184.63 2.35Q184.89 2.09 185.21 1.94L185.21 1.94Q185.61 1.75 186.11 1.75Q186.73 1.75 187.19 2.03L187.19 2.03L187.19 2.03Q187.41 2.16 187.59 2.35C187.99 2.73 188.19 3.22 188.19 3.83L188.19 15.31L206.75 15.31L206.75 3.83C206.75 3.22 206.95 2.73 207.35 2.35Q207.61 2.09 207.93 1.94L207.93 1.94Q208.33 1.75 208.83 1.75Q209.45 1.75 209.91 2.03L209.91 2.03L209.91 2.03Q210.13 2.16 210.31 2.35C210.68 2.73 210.87 3.22 210.87 3.83L210.87 30.91C210.87 31.5 210.68 32 210.31 32.39Q210.13 32.59 209.91 32.72Q209.45 33 208.83 33C208.24 33 207.75 32.79 207.35 32.39C206.95 32 206.75 31.5 206.75 30.91L206.75 19L188.19 19L188.19 30.91C188.19 31.5 187.99 32 187.59 32.39Q187.41 32.59 187.19 32.72Q186.73 33 186.11 33ZM48.49 7.55Q47.99 7.55 47.55 7.39Q47.04 7.2 46.61 6.79C46.1 6.26 45.85 5.63 45.85 4.91C45.85 4.19 46.1 3.58 46.61 3.07Q47.07 2.61 47.63 2.42Q48.03 2.27 48.49 2.27C49.21 2.27 49.82 2.54 50.33 3.07Q50.76 3.48 50.95 3.98Q51.13 4.41 51.13 4.91Q51.13 5.37 50.99 5.77Q50.79 6.33 50.33 6.79C49.82 7.3 49.21 7.55 48.49 7.55ZM30.6 13.85C31.25 13.11 32.02 12.5 32.91 12C34.25 11.25 35.72 10.87 37.32 10.87C38.91 10.87 40.1 11.14 40.88 11.67C41.52 12.09 41.85 12.57 41.85 13.12C41.85 13.25 41.83 13.38 41.8 13.51C41.72 13.89 41.56 14.18 41.32 14.39C41.1 14.58 40.85 14.7 40.56 14.75C40.26 14.81 39.94 14.79 39.59 14.71C37.89 14.37 36.36 14.34 35 14.63C33.64 14.93 32.56 15.48 31.76 16.27Q31.37 16.67 31.12 17.13Q30.6 18.08 30.6 19.31L30.6 31C30.6 31.63 30.42 32.13 30.08 32.48C29.76 32.82 29.26 33 28.6 33C27.96 33 27.46 32.83 27.12 32.51C26.77 32.17 26.6 31.66 26.6 31L26.6 13.11C26.6 12.48 26.77 11.98 27.12 11.63C27.46 11.29 27.96 11.11 28.6 11.11C29.26 11.11 29.76 11.29 30.08 11.63Q30.1 11.65 30.11 11.67Q30.6 12.15 30.6 13.11L30.6 13.85ZM101.44 33.03C100.86 33.03 100.36 32.85 99.96 32.48C99.59 32.07 99.4 31.58 99.4 31L99.4 21.15C99.4 19.63 99.12 18.39 98.56 17.43C98 16.48 97.24 15.77 96.28 15.31C95.35 14.83 94.27 14.59 93.04 14.59C91.92 14.59 90.91 14.82 90 15.27C89.1 15.73 88.38 16.34 87.84 17.11C87.31 17.86 87.04 18.73 87.04 19.71L87.04 31C87.04 31.58 86.86 32.07 86.48 32.48C86.11 32.85 85.62 33.03 85 33.03C84.42 33.03 83.92 32.85 83.52 32.48C83.15 32.07 82.96 31.58 82.96 31L82.96 13.15C82.96 12.54 83.15 12.05 83.52 11.67C83.92 11.3 84.42 11.11 85 11.11C85.62 11.11 86.11 11.3 86.48 11.67C86.86 12.05 87.04 12.54 87.04 13.15L87.04 13.58Q87.93 12.7 89.08 12.07C90.5 11.3 92.08 10.91 93.84 10.91Q96.38 10.91 98.41 11.93L98.42 11.93Q98.59 12.02 98.76 12.11Q99.58 12.55 100.27 13.14Q101.43 14.13 102.2 15.55Q103.48 17.83 103.48 21.15L103.48 31C103.48 31.58 103.28 32.07 102.88 32.48C102.51 32.85 102.03 33.03 101.44 33.03ZM68.4 33.15C66.19 33.15 64.21 32.69 62.48 31.75C60.77 30.79 59.43 29.49 58.44 27.83C57.48 26.15 57 24.23 57 22.07C57 19.89 57.45 17.97 58.36 16.31Q59.18 14.84 60.35 13.75L60.35 13.75Q61.19 12.98 62.2 12.39C63.83 11.43 65.69 10.96 67.8 10.96Q70.92 10.96 73.16 12.35C74.65 13.26 75.79 14.53 76.56 16.15C77.36 17.75 77.76 19.61 77.76 21.71C77.76 22.22 77.59 22.65 77.24 23C76.89 23.31 76.45 23.48 75.92 23.48L60.71 23.48C60.85 24.39 61.15 25.23 61.6 26C62.27 27.14 63.19 28.05 64.36 28.71Q64.48 28.78 64.6 28.84Q66.27 29.71 68.4 29.71C69.23 29.71 70.07 29.57 70.92 29.27C71.8 28.96 72.51 28.59 73.04 28.19C73.44 27.9 73.87 27.75 74.32 27.75C74.8 27.73 75.21 27.86 75.56 28.15C76.01 28.55 76.25 29 76.28 29.48C76.28 29.5 76.28 29.53 76.28 29.55Q76.28 29.73 76.23 29.9Q76.11 30.36 75.64 30.71C74.73 31.43 73.6 32.02 72.24 32.48C70.91 32.93 69.63 33.15 68.4 33.15ZM228.39 33.15C226.23 33.15 224.32 32.69 222.67 31.75C221.02 30.79 219.71 29.49 218.75 27.83C217.82 26.15 217.35 24.23 217.35 22.07C217.35 19.89 217.82 17.97 218.75 16.31C219.71 14.63 221.02 13.33 222.67 12.39C224.32 11.43 226.23 10.96 228.39 10.96C230.52 10.96 232.42 11.43 234.07 12.39Q235.21 13.04 236.12 13.91Q237.19 14.95 237.95 16.31C238.91 17.97 239.39 19.89 239.39 22.07C239.39 24.23 238.92 26.15 237.99 27.83C237.06 29.49 235.76 30.79 234.11 31.75C232.46 32.69 230.55 33.15 228.39 33.15ZM280.69 33.15C278.82 33.15 277.09 32.87 275.49 32.31C273.91 31.73 272.69 31 271.81 30.11C271.46 29.74 271.28 29.32 271.28 28.86Q271.28 28.77 271.29 28.67C271.37 28.11 271.63 27.66 272.09 27.31C272.62 26.89 273.14 26.71 273.65 26.79C274.18 26.85 274.63 27.07 275.01 27.48Q275.69 28.23 277.17 28.91Q278.69 29.55 280.53 29.55C282.07 29.55 283.25 29.3 284.05 28.79C284.87 28.29 285.3 27.63 285.33 26.83C285.33 26.81 285.33 26.78 285.33 26.76C285.33 25.99 284.94 25.32 284.17 24.75Q283.01 23.87 279.89 23.31C277.19 22.78 275.23 21.98 274.01 20.91Q273.01 20.03 272.56 18.91Q272.21 18.03 272.21 17C272.21 15.63 272.61 14.51 273.41 13.63C274.21 12.73 275.23 12.06 276.49 11.63C277.74 11.18 279.05 10.96 280.41 10.96Q283.05 10.96 285.09 11.79C286.45 12.35 287.53 13.13 288.33 14.11C288.68 14.51 288.85 14.93 288.85 15.38C288.85 15.41 288.85 15.44 288.85 15.48C288.82 15.93 288.59 16.31 288.17 16.63C287.74 16.93 287.23 17.02 286.65 16.91C286.06 16.81 285.57 16.57 285.17 16.19C284.5 15.55 283.78 15.11 283.01 14.87C282.23 14.63 281.34 14.51 280.33 14.51Q278.57 14.51 277.33 15.11C276.53 15.51 276.13 16.1 276.13 16.87C276.13 17.35 276.25 17.79 276.49 18.19C276.75 18.57 277.26 18.91 278.01 19.23C278.75 19.53 279.85 19.82 281.29 20.11C283.29 20.51 284.86 21.02 286.01 21.63C287.18 22.25 288.02 22.97 288.53 23.79C289.03 24.59 289.29 25.53 289.29 26.59C289.29 27.82 288.95 28.93 288.29 29.91C287.65 30.9 286.69 31.69 285.41 32.27C284.15 32.86 282.58 33.15 280.69 33.15ZM304.73 33.15C302.51 33.15 300.54 32.69 298.81 31.75C297.1 30.79 295.75 29.49 294.77 27.83C293.81 26.15 293.33 24.23 293.33 22.07C293.33 19.89 293.78 17.97 294.69 16.31Q295.51 14.84 296.68 13.75L296.68 13.75Q297.51 12.98 298.53 12.39Q298.82 12.22 299.13 12.07L299.13 12.06Q301.35 10.96 304.13 10.96C306.21 10.96 307.99 11.42 309.49 12.35C310.98 13.26 312.11 14.53 312.89 16.15Q314.09 18.55 314.09 21.71C314.09 22.22 313.91 22.65 313.57 23Q313.42 23.13 313.26 23.22L313.26 23.22Q312.83 23.48 312.25 23.48L297.04 23.48C297.18 24.39 297.48 25.23 297.93 26C298.59 27.14 299.51 28.05 300.69 28.71C301.86 29.38 303.21 29.71 304.73 29.71C305.55 29.71 306.39 29.57 307.25 29.27C308.13 28.96 308.83 28.59 309.37 28.19C309.77 27.9 310.19 27.75 310.65 27.75C311.13 27.73 311.54 27.86 311.89 28.15C312.34 28.55 312.58 29 312.61 29.48C312.61 29.5 312.61 29.53 312.61 29.55C312.61 30 312.4 30.39 311.97 30.71C311.06 31.43 309.93 32.02 308.57 32.48Q306.57 33.15 304.73 33.15ZM254.66 33.19C252.82 33.19 251.17 32.81 249.7 32.03C248.26 31.23 247.12 30.07 246.26 28.55Q245.02 26.27 245.02 22.96L245.02 13.11C245.02 12.53 245.21 12.05 245.58 11.67Q245.85 11.41 246.16 11.26Q246.57 11.07 247.06 11.07C247.65 11.07 248.13 11.27 248.5 11.67C248.9 12.05 249.1 12.53 249.1 13.11L249.1 22.96Q249.1 25.19 249.94 26.67C250.5 27.63 251.26 28.35 252.22 28.83Q253.66 29.51 255.46 29.51C256.61 29.51 257.62 29.29 258.5 28.83C259.41 28.38 260.13 27.77 260.66 27C261.2 26.22 261.46 25.35 261.46 24.39L261.46 13.11C261.46 12.5 261.65 12.01 262.02 11.63C262.42 11.26 262.92 11.07 263.5 11.07C264.12 11.07 264.61 11.26 264.98 11.63C265.35 12.01 265.54 12.5 265.54 13.11L265.54 30.96C265.54 31.54 265.35 32.03 264.98 32.43C264.61 32.81 264.12 33 263.5 33C262.92 33 262.42 32.81 262.02 32.43C261.65 32.03 261.46 31.54 261.46 30.96L261.46 30.52C260.87 31.11 260.19 31.61 259.42 32.03C258.04 32.81 256.45 33.19 254.66 33.19ZM154.27 42.59C154 42.59 153.68 42.51 153.31 42.35C152.5 41.99 152.1 41.48 152.1 40.82C152.1 40.52 152.18 40.19 152.35 39.83L156.33 30.83L147.35 13.75Q147.11 13.31 147.11 12.89C147.11 12.69 147.15 12.5 147.23 12.31C147.44 11.83 147.8 11.49 148.31 11.27C148.81 11.06 149.29 11.05 149.75 11.23C150.2 11.39 150.55 11.73 150.78 12.23L158.12 26.8L164.55 12.27C165.08 11.15 165.92 10.83 167.07 11.31C167.9 11.67 168.31 12.18 168.31 12.85C168.31 13.14 168.23 13.47 168.07 13.83L155.83 41.35C155.5 42.18 154.99 42.59 154.27 42.59ZM48.49 33C47.9 33 47.41 32.81 47.01 32.43C46.63 32.03 46.45 31.54 46.45 30.96L46.45 13.15C46.45 12.54 46.63 12.05 47.01 11.67C47.41 11.3 47.9 11.11 48.49 11.11C49.1 11.11 49.59 11.3 49.97 11.67C50.34 12.05 50.53 12.54 50.53 13.15L50.53 30.96C50.53 31.54 50.34 32.03 49.97 32.43C49.59 32.81 49.1 33 48.49 33ZM60.75 20.27L74.08 20.27C73.96 19.39 73.72 18.57 73.36 17.83Q72.83 16.73 72.01 15.95Q71.63 15.6 71.2 15.31C70.27 14.7 69.13 14.39 67.8 14.39C66.28 14.39 64.97 14.73 63.88 15.39C62.81 16.06 62 16.98 61.44 18.15C61.12 18.81 60.89 19.52 60.75 20.27ZM297.08 20.27L310.4 20.27C310.29 19.39 310.05 18.57 309.69 17.83C309.18 16.77 308.46 15.93 307.53 15.31L307.51 15.31Q306.12 14.39 304.13 14.39C302.61 14.39 301.3 14.73 300.21 15.39C299.14 16.06 298.33 16.98 297.77 18.15C297.45 18.81 297.22 19.52 297.08 20.27ZM120.15 29.55Q121.79 29.55 123.15 28.93L123.15 28.93Q123.48 28.78 123.79 28.59C124.85 27.93 125.69 27.02 126.31 25.87C126.92 24.73 127.23 23.45 127.23 22.03C127.23 20.59 126.92 19.31 126.31 18.19C125.69 17.07 124.85 16.19 123.79 15.55Q123.39 15.31 122.97 15.12Q121.68 14.55 120.15 14.55C118.81 14.55 117.6 14.89 116.51 15.55C115.44 16.19 114.59 17.07 113.95 18.19C113.33 19.31 113.03 20.59 113.03 22.03C113.03 23.45 113.33 24.73 113.95 25.87C114.59 27.02 115.44 27.93 116.51 28.59C117.6 29.23 118.81 29.55 120.15 29.55ZM228.39 29.55C229.78 29.55 231 29.23 232.07 28.59C233.14 27.96 233.96 27.07 234.55 25.96C235.16 24.83 235.47 23.54 235.47 22.07C235.47 20.61 235.16 19.31 234.55 18.19C233.96 17.05 233.14 16.15 232.07 15.51C231 14.87 229.78 14.55 228.39 14.55Q226.59 14.55 225.15 15.28Q224.92 15.39 224.71 15.51C223.64 16.15 222.8 17.05 222.19 18.19C221.58 19.31 221.27 20.61 221.27 22.07C221.27 23.54 221.58 24.83 222.19 25.96C222.8 27.07 223.64 27.96 224.71 28.59Q224.92 28.72 225.15 28.83L225.15 28.83Q226.59 29.55 228.39 29.55Z" fill="#FFFFFF" fill-opacity="1.000000" fill-rule="evenodd"/>
	<rect id="pawprints 1" width="31.000000" height="31.000000" transform="translate(325.999969 0.000000)" fill="#FFFFFF" fill-opacity="0"/>
	<g clip-path="url(#clip53_164)">
		<path id="Vector" d="M339.33 26.67C338.67 26.19 338.29 25.71 338.15 25.19C337.65 23.26 336.04 21.84 334.23 21.84C332.42 21.84 330.74 23.26 330.24 25.19C330.11 25.71 329.72 26.19 329.06 26.67C328.26 27.25 327.89 28.15 328.1 29.02C328.35 30.06 329.51 30.99 331.1 30.99C331.77 30.99 332.41 30.82 332.94 30.5C333.3 30.28 333.78 30.16 334.23 30.16C334.67 30.16 335.09 30.28 335.45 30.5C335.98 30.82 336.62 31 337.28 31C338.87 31 340.04 30.07 340.29 29.02C340.51 28.15 340.14 27.25 339.33 26.67Z" fill="#FF8A00" fill-opacity="1.000000" fill-rule="nonzero"/>
		<path id="Vector" d="M329.63 21.84C329.63 20.79 328.8 19.12 327.81 19.12C326.83 19.12 326 20.79 326 21.84C326 22.85 326.81 23.66 327.81 23.66C328.81 23.66 329.63 22.85 329.63 21.84Z" fill="#FF8A00" fill-opacity="1.000000" fill-rule="nonzero"/>
		<path id="Vector" d="M340.58 19.12C339.6 19.12 338.77 20.79 338.77 21.84C338.77 22.85 339.58 23.66 340.58 23.66C341.58 23.66 342.4 22.85 342.4 21.84C342.4 20.79 341.57 19.12 340.58 19.12Z" fill="#FF8A00" fill-opacity="1.000000" fill-rule="nonzero"/>
		<path id="Vector" d="M335.13 18.21C335.13 19.21 335.95 20.03 336.95 20.03C337.95 20.03 338.77 19.21 338.77 18.21C338.77 17.16 337.94 15.49 336.95 15.49C335.97 15.49 335.13 17.16 335.13 18.21Z" fill="#FF8A00" fill-opacity="1.000000" fill-rule="nonzero"/>
		<path id="Vector" d="M331.44 20.03C332.44 20.03 333.26 19.21 333.26 18.21C333.26 17.16 332.43 15.49 331.44 15.49C330.46 15.49 329.63 17.16 329.63 18.21C329.63 19.21 330.44 20.03 331.44 20.03Z" fill="#FF8A00" fill-opacity="1.000000" fill-rule="nonzero"/>
		<path id="Vector" d="M353.92 11.17C353.26 10.69 352.87 10.15 352.74 9.63C352.24 7.7 350.56 6.35 348.75 6.35C346.94 6.35 345.33 7.7 344.83 9.63C344.69 10.15 344.31 10.69 343.65 11.17C342.84 11.75 342.47 12.66 342.69 13.52C342.94 14.57 344.1 15.5 345.69 15.5C346.36 15.5 347 15.33 347.53 15C347.89 14.78 348.31 14.67 348.75 14.67C349.19 14.67 349.68 14.78 350.03 15C350.57 15.33 351.2 15.5 351.87 15.5C353.46 15.5 354.62 14.58 354.88 13.52C355.09 12.66 354.72 11.75 353.92 11.17Z" fill="#FF8A00" fill-opacity="1.000000" fill-rule="nonzero"/>
		<path id="Vector" d="M344.21 6.35C344.21 5.3 343.38 3.63 342.4 3.63C341.41 3.63 340.58 5.3 340.58 6.35C340.58 7.35 341.4 8.17 342.4 8.17C343.4 8.17 344.21 7.35 344.21 6.35Z" fill="#FF8A00" fill-opacity="1.000000" fill-rule="nonzero"/>
		<path id="Vector" d="M355.17 3.63C354.18 3.63 353.35 5.3 353.35 6.35C353.35 7.35 354.17 8.17 355.17 8.17C356.17 8.17 356.98 7.35 356.98 6.35C356.98 5.3 356.15 3.63 355.17 3.63Z" fill="#FF8A00" fill-opacity="1.000000" fill-rule="nonzero"/>
		<path id="Vector" d="M349.72 2.72C349.72 3.72 350.54 4.53 351.54 4.53C352.54 4.53 353.35 3.72 353.35 2.72C353.35 1.67 352.52 0 351.54 0C350.55 0 349.72 1.67 349.72 2.72Z" fill="#FF8A00" fill-opacity="1.000000" fill-rule="nonzero"/>
		<path id="Vector" d="M344.21 2.72C344.21 3.72 345.03 4.53 346.03 4.53C347.03 4.53 347.84 3.72 347.84 2.72C347.84 1.67 347.01 0 346.03 0C345.04 0 344.21 1.67 344.21 2.72Z" fill="#FF8A00" fill-opacity="1.000000" fill-rule="nonzero"/>
	</g>
</svg>
