<svg width="355.000000" height="45.000000" viewBox="0 0 355 45" fill="none" xmlns="http://www.w3.org/2000/svg" xmlns:xlink="http://www.w3.org/1999/xlink">
	<desc>
			Created with Pixso.
	</desc>
	<defs>
		<clipPath id="clip44_401">
			<rect id="pawprints 2" width="31.000000" height="31.000000" transform="translate(324.000000 0.000000)" fill="white" fill-opacity="0"/>
		</clipPath>
	</defs>
	<path id="Friendly House" d="M1.55 35C0.97 35 0.47 34.8 0.07 34.4C-0.33 34 -0.53 33.5 -0.53 32.91L-0.53 5.84Q-0.53 5.21 -0.25 4.76Q-0.12 4.54 0.07 4.35Q0.34 4.09 0.65 3.94Q1.06 3.76 1.55 3.76L19.64 3.76C20.25 3.76 20.74 3.94 21.12 4.32Q21.27 4.46 21.39 4.64Q21.68 5.09 21.68 5.72Q21.68 6.26 21.44 6.67Q21.31 6.89 21.12 7.08C20.74 7.42 20.25 7.6 19.64 7.6L3.63 7.6L3.63 17.32L15.12 17.32C15.73 17.32 16.22 17.5 16.6 17.87C16.97 18.22 17.16 18.68 17.16 19.24Q17.16 19.74 16.95 20.14Q16.82 20.41 16.6 20.64C16.22 20.98 15.73 21.16 15.12 21.16L3.63 21.16L3.63 32.91C3.63 33.5 3.43 34 3.03 34.4Q2.77 34.66 2.46 34.81Q2.05 35 1.55 35ZM120.15 35.16C118.07 35.16 116.19 34.68 114.51 33.72Q113.39 33.05 112.47 32.16Q111.36 31.1 110.55 29.72C109.59 28.04 109.11 26.14 109.11 24.04C109.11 21.93 109.55 20.05 110.43 18.4C111.33 16.71 112.56 15.4 114.11 14.44C115.65 13.45 117.4 12.96 119.35 12.96C120.92 12.96 122.37 13.29 123.71 13.96C125.04 14.6 126.16 15.48 127.07 16.6L127.07 5.79Q127.07 5.11 127.38 4.62Q127.49 4.46 127.63 4.32Q127.85 4.11 128.11 3.98L128.11 3.98L128.11 3.98Q128.56 3.76 129.11 3.76C129.72 3.76 130.21 3.94 130.59 4.32C130.96 4.69 131.15 5.18 131.15 5.79L131.15 24.04Q131.15 26.49 130.25 28.56Q130 29.16 129.67 29.72C128.71 31.4 127.4 32.73 125.75 33.72C124.09 34.68 122.23 35.16 120.15 35.16ZM143.55 35C142.38 35 141.34 34.68 140.43 34.04C139.53 33.4 138.82 32.53 138.31 31.44C137.81 30.32 137.55 29.04 137.55 27.6L137.55 5.76C137.55 5.17 137.74 4.69 138.11 4.32C138.49 3.94 138.97 3.76 139.55 3.76C140.14 3.76 140.62 3.94 140.99 4.32C141.37 4.69 141.55 5.17 141.55 5.76L141.55 27.6C141.55 28.58 141.74 29.4 142.11 30.04C142.49 30.68 142.97 31 143.55 31L144.55 31C145.09 31 145.51 31.18 145.83 31.56C146.18 31.93 146.35 32.41 146.35 33C146.35 33.58 146.1 34.06 145.59 34.43C145.09 34.81 144.43 35 143.63 35L143.55 35ZM186.11 35C185.52 35 185.03 34.8 184.63 34.4C184.23 34 184.03 33.5 184.03 32.91L184.03 5.84C184.03 5.22 184.23 4.73 184.63 4.35Q184.89 4.09 185.21 3.94L185.21 3.94Q185.61 3.76 186.11 3.76Q186.73 3.76 187.19 4.03L187.19 4.03L187.19 4.03Q187.41 4.16 187.59 4.35C187.99 4.73 188.19 5.22 188.19 5.84L188.19 17.32L206.75 17.32L206.75 5.84C206.75 5.22 206.95 4.73 207.35 4.35Q207.61 4.09 207.93 3.94L207.93 3.94Q208.33 3.76 208.83 3.76Q209.45 3.76 209.91 4.03L209.91 4.03L209.91 4.03Q210.13 4.16 210.31 4.35C210.68 4.73 210.87 5.22 210.87 5.84L210.87 32.91C210.87 33.5 210.68 34 210.31 34.4Q210.13 34.59 209.91 34.72Q209.45 35 208.83 35C208.24 35 207.75 34.8 207.35 34.4C206.95 34 206.75 33.5 206.75 32.91L206.75 21L188.19 21L188.19 32.91C188.19 33.5 187.99 34 187.59 34.4Q187.41 34.59 187.19 34.72Q186.73 35 186.11 35ZM48.49 9.56Q47.99 9.56 47.55 9.39Q47.04 9.2 46.61 8.79C46.1 8.26 45.85 7.64 45.85 6.91C45.85 6.2 46.1 5.58 46.61 5.08Q47.07 4.61 47.63 4.42Q48.03 4.28 48.49 4.28C49.21 4.28 49.82 4.54 50.33 5.08Q50.76 5.48 50.95 5.98Q51.13 6.41 51.13 6.91Q51.13 7.37 50.99 7.77Q50.79 8.33 50.33 8.79C49.82 9.3 49.21 9.56 48.49 9.56ZM30.6 15.85C31.25 15.11 32.02 14.5 32.91 14C34.25 13.25 35.72 12.88 37.32 12.88C38.91 12.88 40.1 13.14 40.88 13.68C41.52 14.09 41.85 14.57 41.85 15.12C41.85 15.25 41.83 15.38 41.8 15.52C41.72 15.89 41.56 16.18 41.32 16.4C41.1 16.58 40.85 16.7 40.56 16.76C40.26 16.81 39.94 16.79 39.59 16.71C37.89 16.37 36.36 16.34 35 16.64C33.64 16.93 32.56 17.48 31.76 18.28Q31.37 18.67 31.12 19.13Q30.6 20.08 30.6 21.32L30.6 33C30.6 33.64 30.42 34.13 30.08 34.48C29.76 34.82 29.26 35 28.6 35C27.96 35 27.46 34.84 27.12 34.52C26.77 34.17 26.6 33.66 26.6 33L26.6 15.12C26.6 14.48 26.77 13.98 27.12 13.64C27.46 13.29 27.96 13.12 28.6 13.12C29.26 13.12 29.76 13.29 30.08 13.64Q30.1 13.65 30.11 13.67Q30.6 14.15 30.6 15.12L30.6 15.85ZM101.44 35.04C100.86 35.04 100.36 34.85 99.96 34.48C99.59 34.08 99.4 33.58 99.4 33L99.4 23.16C99.4 21.64 99.12 20.4 98.56 19.44C98 18.48 97.24 17.77 96.28 17.32C95.35 16.84 94.27 16.6 93.04 16.6C91.92 16.6 90.91 16.82 90 17.28C89.1 17.73 88.38 18.34 87.84 19.12C87.31 19.86 87.04 20.73 87.04 21.72L87.04 33C87.04 33.58 86.86 34.08 86.48 34.48C86.11 34.85 85.62 35.04 85 35.04C84.42 35.04 83.92 34.85 83.52 34.48C83.15 34.08 82.96 33.58 82.96 33L82.96 15.16C82.96 14.54 83.15 14.05 83.52 13.68C83.92 13.3 84.42 13.12 85 13.12C85.62 13.12 86.11 13.3 86.48 13.68C86.86 14.05 87.04 14.54 87.04 15.16L87.04 15.58Q87.93 14.7 89.08 14.08C90.5 13.3 92.08 12.92 93.84 12.92Q96.38 12.92 98.41 13.93L98.42 13.93Q98.59 14.02 98.76 14.12Q99.58 14.55 100.27 15.14Q101.43 16.13 102.2 17.56Q103.48 19.84 103.48 23.16L103.48 33C103.48 33.58 103.28 34.08 102.88 34.48C102.51 34.85 102.03 35.04 101.44 35.04ZM68.4 35.16C66.19 35.16 64.21 34.69 62.48 33.75C60.77 32.8 59.43 31.49 58.44 29.84C57.48 28.16 57 26.24 57 24.08C57 21.89 57.45 19.97 58.36 18.32Q59.18 16.84 60.35 15.75L60.35 15.75Q61.19 14.98 62.2 14.4C63.83 13.44 65.69 12.96 67.8 12.96Q70.92 12.96 73.16 14.36C74.65 15.26 75.79 16.53 76.56 18.16C77.36 19.76 77.76 21.61 77.76 23.72C77.76 24.22 77.59 24.65 77.24 25C76.89 25.32 76.45 25.48 75.92 25.48L60.71 25.48C60.85 26.39 61.15 27.23 61.6 28C62.27 29.14 63.19 30.05 64.36 30.72Q64.48 30.78 64.6 30.84Q66.27 31.72 68.4 31.72C69.23 31.72 70.07 31.57 70.92 31.28C71.8 30.96 72.51 30.6 73.04 30.2C73.44 29.9 73.87 29.76 74.32 29.76C74.8 29.73 75.21 29.86 75.56 30.16C76.01 30.56 76.25 31 76.28 31.48C76.28 31.5 76.28 31.53 76.28 31.55Q76.28 31.73 76.23 31.9Q76.11 32.36 75.64 32.72C74.73 33.43 73.6 34.02 72.24 34.48C70.91 34.93 69.63 35.16 68.4 35.16ZM228.39 35.16C226.23 35.16 224.32 34.69 222.67 33.75C221.02 32.8 219.71 31.49 218.75 29.84C217.82 28.16 217.35 26.24 217.35 24.08C217.35 21.89 217.82 19.97 218.75 18.32C219.71 16.64 221.02 15.33 222.67 14.4C224.32 13.44 226.23 12.96 228.39 12.96C230.52 12.96 232.42 13.44 234.07 14.4Q235.21 15.04 236.12 15.92Q237.19 16.95 237.95 18.32C238.91 19.97 239.39 21.89 239.39 24.08C239.39 26.24 238.92 28.16 237.99 29.84C237.06 31.49 235.76 32.8 234.11 33.75C232.46 34.69 230.55 35.16 228.39 35.16ZM280.69 35.16C278.82 35.16 277.09 34.88 275.49 34.32C273.91 33.73 272.69 33 271.81 32.12C271.46 31.74 271.28 31.32 271.28 30.86Q271.28 30.77 271.29 30.68C271.37 30.12 271.63 29.66 272.09 29.32C272.62 28.89 273.14 28.72 273.65 28.8C274.18 28.85 274.63 29.08 275.01 29.48Q275.69 30.24 277.17 30.92Q278.69 31.56 280.53 31.56C282.07 31.56 283.25 31.3 284.05 30.8C284.87 30.29 285.3 29.64 285.33 28.84C285.33 28.81 285.33 28.78 285.33 28.76C285.33 27.99 284.94 27.32 284.17 26.76Q283.01 25.88 279.89 25.32C277.19 24.78 275.23 23.98 274.01 22.92Q273.01 22.03 272.56 20.92Q272.21 20.03 272.21 19C272.21 17.64 272.61 16.52 273.41 15.64C274.21 14.73 275.23 14.06 276.49 13.64C277.74 13.18 279.05 12.96 280.41 12.96Q283.05 12.96 285.09 13.8C286.45 14.36 287.53 15.13 288.33 16.12C288.68 16.51 288.85 16.93 288.85 17.38C288.85 17.41 288.85 17.44 288.85 17.48C288.82 17.93 288.59 18.32 288.17 18.64C287.74 18.93 287.23 19.02 286.65 18.92C286.06 18.81 285.57 18.57 285.17 18.2C284.5 17.56 283.78 17.12 283.01 16.87C282.23 16.64 281.34 16.52 280.33 16.52Q278.57 16.52 277.33 17.12C276.53 17.52 276.13 18.1 276.13 18.87C276.13 19.36 276.25 19.79 276.49 20.2C276.75 20.57 277.26 20.92 278.01 21.24C278.75 21.53 279.85 21.82 281.29 22.12C283.29 22.52 284.86 23.02 286.01 23.64C287.18 24.25 288.02 24.97 288.53 25.8C289.03 26.6 289.29 27.53 289.29 28.6C289.29 29.82 288.95 30.93 288.29 31.92C287.65 32.9 286.69 33.69 285.41 34.28C284.15 34.86 282.58 35.16 280.69 35.16ZM304.73 35.16C302.51 35.16 300.54 34.69 298.81 33.75C297.1 32.8 295.75 31.49 294.77 29.84C293.81 28.16 293.33 26.24 293.33 24.08C293.33 21.89 293.78 19.97 294.69 18.32Q295.51 16.84 296.68 15.75L296.68 15.75Q297.51 14.98 298.53 14.4Q298.82 14.22 299.13 14.07L299.13 14.06Q301.35 12.96 304.13 12.96C306.21 12.96 307.99 13.42 309.49 14.36C310.98 15.26 312.11 16.53 312.89 18.16Q314.09 20.56 314.09 23.72C314.09 24.22 313.91 24.65 313.57 25Q313.42 25.13 313.26 25.22L313.26 25.22Q312.83 25.48 312.25 25.48L297.04 25.48C297.18 26.39 297.48 27.23 297.93 28C298.59 29.14 299.51 30.05 300.69 30.72C301.86 31.38 303.21 31.72 304.73 31.72C305.55 31.72 306.39 31.57 307.25 31.28C308.13 30.96 308.83 30.6 309.37 30.2C309.77 29.9 310.19 29.76 310.65 29.76C311.13 29.73 311.54 29.86 311.89 30.16C312.34 30.56 312.58 31 312.61 31.48C312.61 31.5 312.61 31.53 312.61 31.55C312.61 32 312.4 32.39 311.97 32.72C311.06 33.43 309.93 34.02 308.57 34.48Q306.57 35.16 304.73 35.16ZM254.66 35.2C252.82 35.2 251.17 34.81 249.7 34.04C248.26 33.24 247.12 32.08 246.26 30.56Q245.02 28.28 245.02 24.96L245.02 15.12C245.02 14.53 245.21 14.05 245.58 13.68Q245.85 13.41 246.16 13.26Q246.57 13.08 247.06 13.08C247.65 13.08 248.13 13.28 248.5 13.68C248.9 14.05 249.1 14.53 249.1 15.12L249.1 24.96Q249.1 27.2 249.94 28.68C250.5 29.64 251.26 30.36 252.22 30.84Q253.66 31.52 255.46 31.52C256.61 31.52 257.62 31.29 258.5 30.84C259.41 30.38 260.13 29.77 260.66 29C261.2 28.22 261.46 27.36 261.46 26.4L261.46 15.12C261.46 14.5 261.65 14.01 262.02 13.64C262.42 13.26 262.92 13.08 263.5 13.08C264.12 13.08 264.61 13.26 264.98 13.64C265.35 14.01 265.54 14.5 265.54 15.12L265.54 32.96C265.54 33.54 265.35 34.04 264.98 34.43C264.61 34.81 264.12 35 263.5 35C262.92 35 262.42 34.81 262.02 34.43C261.65 34.04 261.46 33.54 261.46 32.96L261.46 32.52C260.87 33.11 260.19 33.61 259.42 34.04C258.04 34.81 256.45 35.2 254.66 35.2ZM154.27 44.6C154 44.6 153.68 44.52 153.31 44.36C152.5 43.99 152.1 43.48 152.1 42.82C152.1 42.52 152.18 42.19 152.35 41.84L156.33 32.83L147.35 15.76Q147.11 15.31 147.11 14.89C147.11 14.69 147.15 14.5 147.23 14.32C147.44 13.84 147.8 13.49 148.31 13.28C148.81 13.06 149.29 13.05 149.75 13.24C150.2 13.4 150.55 13.73 150.78 14.24L158.12 28.8L164.55 14.28C165.08 13.16 165.92 12.84 167.07 13.32C167.9 13.67 168.31 14.18 168.31 14.85C168.31 15.14 168.23 15.47 168.07 15.84L155.83 43.36C155.5 44.18 154.99 44.6 154.27 44.6ZM48.49 35C47.9 35 47.41 34.81 47.01 34.43C46.63 34.04 46.45 33.54 46.45 32.96L46.45 15.16C46.45 14.54 46.63 14.05 47.01 13.68C47.41 13.3 47.9 13.12 48.49 13.12C49.1 13.12 49.59 13.3 49.97 13.68C50.34 14.05 50.53 14.54 50.53 15.16L50.53 32.96C50.53 33.54 50.34 34.04 49.97 34.43C49.59 34.81 49.1 35 48.49 35ZM60.75 22.28L74.08 22.28C73.96 21.39 73.72 20.57 73.36 19.84Q72.83 18.73 72.01 17.95Q71.63 17.6 71.2 17.32C70.27 16.7 69.13 16.4 67.8 16.4C66.28 16.4 64.97 16.73 63.88 17.4C62.81 18.06 62 18.98 61.44 20.16C61.12 20.81 60.89 21.52 60.75 22.28ZM297.08 22.28L310.4 22.28C310.29 21.39 310.05 20.57 309.69 19.84C309.18 18.77 308.46 17.93 307.53 17.32L307.51 17.31Q306.12 16.4 304.13 16.4C302.61 16.4 301.3 16.73 300.21 17.4C299.14 18.06 298.33 18.98 297.77 20.16C297.45 20.81 297.22 21.52 297.08 22.28ZM120.15 31.56Q121.79 31.56 123.15 30.93L123.15 30.93Q123.48 30.78 123.79 30.6C124.85 29.93 125.69 29.02 126.31 27.88C126.92 26.73 127.23 25.45 127.23 24.04C127.23 22.6 126.92 21.32 126.31 20.2C125.69 19.08 124.85 18.2 123.79 17.56Q123.39 17.31 122.97 17.12Q121.68 16.56 120.15 16.56C118.81 16.56 117.6 16.89 116.51 17.56C115.44 18.2 114.59 19.08 113.95 20.2C113.33 21.32 113.03 22.6 113.03 24.04C113.03 25.45 113.33 26.73 113.95 27.88C114.59 29.02 115.44 29.93 116.51 30.6C117.6 31.24 118.81 31.56 120.15 31.56ZM228.39 31.56C229.78 31.56 231 31.24 232.07 30.6C233.14 29.96 233.96 29.08 234.55 27.96C235.16 26.84 235.47 25.54 235.47 24.08C235.47 22.61 235.16 21.32 234.55 20.2C233.96 19.05 233.14 18.16 232.07 17.52C231 16.87 229.78 16.56 228.39 16.56Q226.59 16.56 225.15 17.28Q224.92 17.39 224.71 17.52C223.64 18.16 222.8 19.05 222.19 20.2C221.58 21.32 221.27 22.61 221.27 24.08C221.27 25.54 221.58 26.84 222.19 27.96C222.8 29.08 223.64 29.96 224.71 30.6Q224.92 30.72 225.15 30.83L225.15 30.83Q226.59 31.56 228.39 31.56Z" fill="#282626" fill-opacity="1.000000" fill-rule="evenodd"/>
	<rect id="pawprints 2" width="31.000000" height="31.000000" transform="translate(324.000000 0.000000)" fill="#FFFFFF" fill-opacity="0"/>
	<g clip-path="url(#clip44_401)">
		<path id="Vector" d="M337.33 26.67C336.67 26.19 336.29 25.71 336.15 25.19C335.65 23.26 334.04 21.84 332.23 21.84C330.42 21.84 328.74 23.26 328.24 25.19C328.11 25.7 327.72 26.19 327.06 26.67C326.26 27.25 325.89 28.15 326.1 29.02C326.35 30.06 327.51 30.99 329.1 30.99C329.77 30.99 330.41 30.82 330.94 30.5C331.3 30.28 331.78 30.16 332.23 30.16C332.67 30.16 333.09 30.28 333.45 30.5C333.98 30.82 334.62 31 335.28 31C336.87 31 338.04 30.07 338.29 29.02C338.51 28.15 338.14 27.25 337.33 26.67Z" fill="#FF8A00" fill-opacity="1.000000" fill-rule="nonzero"/>
		<path id="Vector" d="M327.63 21.84C327.63 20.79 326.8 19.12 325.81 19.12C324.83 19.12 324 20.79 324 21.84C324 22.85 324.81 23.66 325.81 23.66C326.81 23.66 327.63 22.85 327.63 21.84Z" fill="#FF8A00" fill-opacity="1.000000" fill-rule="nonzero"/>
		<path id="Vector" d="M338.58 19.12C337.6 19.12 336.77 20.79 336.77 21.84C336.77 22.85 337.58 23.66 338.58 23.66C339.58 23.66 340.4 22.85 340.4 21.84C340.4 20.79 339.57 19.12 338.58 19.12Z" fill="#FF8A00" fill-opacity="1.000000" fill-rule="nonzero"/>
		<path id="Vector" d="M333.13 18.21C333.13 19.21 333.95 20.03 334.95 20.03C335.95 20.03 336.77 19.21 336.77 18.21C336.77 17.16 335.94 15.49 334.95 15.49C333.97 15.49 333.13 17.16 333.13 18.21Z" fill="#FF8A00" fill-opacity="1.000000" fill-rule="nonzero"/>
		<path id="Vector" d="M329.44 20.03C330.44 20.03 331.26 19.21 331.26 18.21C331.26 17.16 330.43 15.49 329.44 15.49C328.46 15.49 327.63 17.16 327.63 18.21C327.63 19.21 328.44 20.03 329.44 20.03Z" fill="#FF8A00" fill-opacity="1.000000" fill-rule="nonzero"/>
		<path id="Vector" d="M351.92 11.17C351.26 10.69 350.87 10.15 350.74 9.63C350.24 7.7 348.56 6.35 346.75 6.35C344.94 6.35 343.33 7.7 342.83 9.63C342.69 10.15 342.31 10.69 341.65 11.17C340.84 11.76 340.47 12.66 340.69 13.52C340.94 14.57 342.1 15.5 343.69 15.5C344.36 15.5 345 15.33 345.53 15C345.89 14.78 346.31 14.67 346.75 14.67C347.19 14.67 347.68 14.78 348.03 15C348.57 15.33 349.2 15.5 349.87 15.5C351.46 15.5 352.62 14.58 352.88 13.52C353.09 12.66 352.72 11.75 351.92 11.17Z" fill="#FF8A00" fill-opacity="1.000000" fill-rule="nonzero"/>
		<path id="Vector" d="M342.21 6.35C342.21 5.3 341.38 3.63 340.4 3.63C339.41 3.63 338.58 5.3 338.58 6.35C338.58 7.35 339.4 8.17 340.4 8.17C341.4 8.17 342.21 7.35 342.21 6.35Z" fill="#FF8A00" fill-opacity="1.000000" fill-rule="nonzero"/>
		<path id="Vector" d="M353.17 3.63C352.18 3.63 351.35 5.3 351.35 6.35C351.35 7.35 352.17 8.17 353.17 8.17C354.17 8.17 354.98 7.35 354.98 6.35C354.98 5.3 354.15 3.63 353.17 3.63Z" fill="#FF8A00" fill-opacity="1.000000" fill-rule="nonzero"/>
		<path id="Vector" d="M347.72 2.72C347.72 3.72 348.54 4.53 349.54 4.53C350.54 4.53 351.35 3.72 351.35 2.72C351.35 1.67 350.52 0 349.54 0C348.55 0 347.72 1.67 347.72 2.72Z" fill="#FF8A00" fill-opacity="1.000000" fill-rule="nonzero"/>
		<path id="Vector" d="M342.21 2.72C342.21 3.72 343.03 4.53 344.03 4.53C345.03 4.53 345.84 3.72 345.84 2.72C345.84 1.67 345.01 0 344.03 0C343.04 0 342.21 1.67 342.21 2.72Z" fill="#FF8A00" fill-opacity="1.000000" fill-rule="nonzero"/>
	</g>
</svg>
